<svg xmlns="http://www.w3.org/2000/svg" width="150" height="150" viewBox="0 0 150 150" fill="none"><path d="M73.9083 20.6499L26.5083 47.9499V131.05H121.308V47.9499L73.9083 20.6499Z" fill="#8EC3EA"></path><path d="M33.6084 48.3499L78.4084 22.1499L74.0084 20.6499L26.6084 48.0499V131.15H30.6084V53.8499C30.5084 51.5499 31.6084 49.4499 33.6084 48.3499Z" fill="white"></path><path d="M57.808 84.5499L50.408 83.45L44.0079 80.0499L39.708 72.95L45.5079 65.15L54.408 58.85L62.808 65.15L64.408 71.35L66.0079 74.2499L78.308 86.2499L89.1079 75.35L88.0079 70.65L85.208 69.5499L82.808 68.95L80.1079 65.15L88.708 58.45L91.908 62.45L91.5079 65.15L99.808 68.65L102.108 73.85L104.108 78.0499L107.708 85.7499H105.608L95.908 79.95L92.208 81.15L83.5079 90.95L102.708 111.15L100.708 113.85L94.308 112.95L91.308 109.05L85.308 106.85L83.0079 102.75L77.5079 100.85L74.908 98.95L60.308 113.15C60.308 113.15 55.9079 113.95 55.5079 113.65C55.2079 113.25 54.508 111.45 55.708 110.05C56.908 108.65 69.6079 95.0499 69.6079 95.0499L65.6079 90.45L59.5079 88.35L57.808 84.5499Z" fill="white"></path><path d="M59.308 114.35C66.708 106.95 74.0079 99.5501 81.4079 92.2501L90.9079 82.7501C91.0079 82.6501 91.0079 82.65 91.1079 82.55L88.708 80.05L88.6079 80.1501L56.708 112.05C56.508 112.25 56.408 112.35 56.308 112.55C55.908 113.15 55.908 113.75 56.208 114.35C56.508 114.95 57.008 115.25 57.708 115.25C58.308 115.25 58.708 114.95 59.308 114.35Z" fill="#8EC3EA"></path><path d="M57.2079 85.15C57.9079 85.25 58.3079 85.55 58.7079 86.15C59.3079 87.25 60.1079 88.55 60.8079 89.85C60.9079 90.05 61.2078 90.2499 61.4078 90.2499C62.8078 90.5499 64.2078 90.8499 65.5078 91.0499C66.2078 91.1499 66.7078 91.55 67.1078 92.15C67.6078 93.15 68.2079 94.05 68.7079 94.95L69.2079 95.85L76.6078 88.45L63.6078 75.45L54.5078 84.5499C54.6078 84.5499 54.8078 84.65 54.9078 84.65C55.7078 84.95 56.5079 85.05 57.2079 85.15Z" fill="#8EC3EA"></path><path d="M63.4082 71.7501C63.5082 71.6501 63.5082 71.4501 63.6082 71.3501C63.5082 71.2501 63.5082 71.0501 63.4082 70.9501C63.2082 70.6501 63.1082 70.3501 62.9082 70.1501C60.2082 67.4501 57.5083 64.7501 55.2083 62.4501C54.8083 62.0501 54.4082 61.8501 53.9082 61.8501C53.4082 61.8501 53.0082 62.0501 52.6082 62.4501C48.7082 66.2501 44.9082 70.15 41.0082 74.05C40.2082 74.85 40.2082 75.75 41.0082 76.55C43.5082 79.05 46.1083 81.6501 48.7083 84.2501C49.5083 85.0501 50.4083 85.0501 51.2083 84.2501C55.9083 79.6501 59.4083 76.0501 62.8083 72.6501C63.1083 72.4501 63.2082 72.1501 63.4082 71.7501Z" fill="#8EC3EA"></path><path d="M89.2043 62.0906L83.0464 68.2363L85.5895 70.7844L91.7474 64.6387L89.2043 62.0906Z" fill="#8EC3EA"></path><path d="M101.608 78.7501C101.008 78.1501 100.808 77.4501 100.908 76.6501C101.208 74.9501 100.608 73.1501 99.3081 71.9501C98.0081 70.7501 96.308 70.15 94.608 70.55C93.908 70.65 93.3081 70.4501 92.8081 69.9501C92.2081 69.3501 91.708 68.7501 91.108 68.2501L90.608 67.8501L87.3081 71.1501L87.8081 71.55C88.4081 72.15 88.9081 72.6501 89.5081 73.2501C90.0081 73.7501 90.208 74.2501 90.108 74.8501C89.808 76.7501 90.3081 78.4501 91.5081 79.7501C92.7081 80.9501 94.5081 81.5501 96.4081 81.2501C96.5081 81.2501 96.7081 81.2501 96.8081 81.2501C97.3081 81.2501 97.708 81.4501 98.108 81.8501C98.408 82.1501 98.8081 82.5501 99.3081 82.9501C101.308 84.6501 103.708 85.9501 106.408 86.9501C106.408 86.8501 106.408 86.8501 106.308 86.7501C105.308 83.6501 103.708 80.9501 101.608 78.7501Z" fill="#8EC3EA"></path><path d="M77.7081 101.85C77.9081 102.15 78.1081 102.35 78.5081 102.45C79.2081 102.55 79.908 102.75 80.608 102.85C81.308 102.95 82.0081 103.15 82.7081 103.25C83.3081 103.35 83.7081 103.65 84.0081 104.15C84.8081 105.55 85.4081 106.75 86.2081 107.95C86.3081 108.15 86.6081 108.35 86.9081 108.45C88.2081 108.75 89.5081 108.95 91.2081 109.25C91.8081 109.35 92.2081 109.65 92.5081 110.15C93.3081 111.65 94.0081 112.85 94.7081 113.95C94.8081 114.15 95.008 114.35 95.108 114.35C96.508 114.65 97.9081 114.85 99.0081 115.05C99.2081 115.05 99.4081 115.05 99.4081 114.95C99.9081 114.45 100.408 113.95 100.908 113.45L101.208 113.15L82.608 94.55L76.8081 100.35C76.9081 100.45 76.9081 100.55 77.0081 100.65C77.2081 101.05 77.5081 101.45 77.7081 101.85Z" fill="#8EC3EA"></path><path d="M137.208 130.25H122.908V49.85L136.608 57.75C136.808 57.85 137.008 57.95 137.208 57.95C137.608 57.95 138.008 57.75 138.208 57.35C138.508 56.75 138.308 56.05 137.808 55.75L74.5081 19.15C74.1081 18.95 73.7081 18.95 73.3081 19.15L11.608 54.75C11.008 55.05 10.8081 55.85 11.2081 56.35C11.5081 56.95 12.3081 57.15 12.8081 56.75L24.9081 49.75V130.15H12.2081C11.5081 130.15 11.0081 130.65 11.0081 131.35C11.0081 132.05 11.5081 132.55 12.2081 132.55H137.308C138.008 132.55 138.508 132.05 138.508 131.35C138.508 130.65 137.908 130.25 137.208 130.25ZM120.508 130.25H27.3081V48.45L73.9081 21.55L120.508 48.45V130.25V130.25Z" fill="url(#paint0_linear_319_432)"></path><path d="M81.1081 82.25L78.8081 84.55C78.7081 84.65 78.6081 84.7501 78.5081 84.8501L67.9081 74.25C67.1081 73.45 66.3081 72.65 65.4081 71.75C65.2081 71.55 65.2081 71.55 65.3081 71.25C66.3081 69.45 66.0081 67.75 64.6081 66.25C62.0081 63.65 59.5081 61.0501 57.0081 58.6501C55.2081 56.8501 52.8081 56.8501 51.0081 58.6501C47.3081 62.3501 43.4081 66.2501 39.5081 70.1501C37.8081 71.9501 37.7081 74.25 39.5081 76.05C42.3081 78.95 45.1082 81.65 47.2082 83.75C48.5082 85.05 50.1081 85.3501 51.9081 84.6501C52.1081 84.5501 52.3081 84.55 52.4081 84.55C53.7081 84.75 55.0081 85.0501 56.4081 85.3501C56.6081 85.3501 56.9081 85.55 57.0081 85.75C57.6081 86.85 58.3081 87.95 59.1081 89.45C59.5081 90.05 59.9081 90.45 60.6081 90.55C61.3081 90.65 62.0082 90.85 62.7082 90.95C63.4082 91.05 64.1082 91.2501 64.7082 91.3501C65.0082 91.4501 65.2081 91.5501 65.4081 91.8501C66.1081 93.0501 66.7081 94.15 67.4081 95.25C67.6081 95.55 67.6081 95.75 67.3081 95.95C63.5081 99.75 59.7081 103.55 55.9081 107.35L55.2082 108.05C54.9082 108.35 54.6081 108.65 54.4081 108.95C53.1081 110.65 53.4081 113.15 55.0081 114.45C55.8081 115.15 56.7081 115.45 57.6081 115.45C58.7081 115.45 59.8082 114.95 60.7082 114.05C65.3082 109.45 69.9081 104.85 74.5081 100.25C74.6081 100.15 74.7081 99.9501 74.8081 99.8501C75.3081 100.45 75.5081 100.95 75.8081 101.45C76.1081 102.15 76.6081 102.45 77.4081 102.65C78.6081 102.85 80.1081 103.05 81.5081 103.45C81.8081 103.55 82.1082 103.75 82.2082 103.95C83.0082 105.15 83.7081 106.35 84.3081 107.55C84.7081 108.25 85.2081 108.65 86.0081 108.75C86.9081 108.85 87.7081 109.05 88.6081 109.25C89.1081 109.35 89.6081 109.45 90.0081 109.55C90.4081 109.65 90.6082 109.75 90.7082 110.05C91.0082 110.65 91.4081 111.35 91.8081 111.95C92.1081 112.55 92.5081 113.15 92.8081 113.75C93.1081 114.35 93.6081 114.75 94.3081 114.85C95.6081 115.05 97.4081 115.35 99.1081 115.75C99.7081 115.85 100.208 115.75 100.608 115.35C101.208 114.75 101.808 114.15 102.408 113.55L103.308 112.75C103.808 112.25 104.108 111.85 104.108 111.45C104.108 111.05 103.808 110.65 103.308 110.15C97.1081 103.95 90.8081 97.65 84.6081 91.45C84.5081 91.35 84.3081 91.25 84.1081 91.05C84.1081 91.05 84.0081 91.05 84.0081 90.95C84.2081 90.85 84.3081 90.7501 84.5081 90.6501L84.9081 90.25C87.5081 87.65 90.2081 84.9501 92.8081 82.3501C93.2081 81.9501 93.5081 81.85 94.0081 81.95C94.4081 82.05 94.8082 82.05 95.2082 82.05C95.7082 82.05 96.2081 82.05 96.6081 82.25C97.1081 82.45 97.5081 82.85 98.0081 83.25C98.2081 83.45 98.5082 83.75 98.7082 83.95C101.508 86.15 104.808 87.3501 107.708 88.3501C108.408 88.5501 109.008 88.35 109.408 87.75V87.6501V86.8501L109.308 86.6501C109.308 86.5501 109.208 86.4501 109.208 86.3501C107.708 81.7501 105.808 78.35 103.208 75.55C103.108 75.45 103.108 75.15 103.108 75.05C103.108 74.75 103.108 74.4501 103.108 74.1501C103.108 73.6501 103.108 73.05 103.008 72.55C102.108 68.55 98.7081 66.05 94.6081 66.45C94.4081 66.45 94.2082 66.45 94.2082 66.45C93.6082 65.95 93.1081 65.35 92.5081 64.75L92.1081 64.3501C92.1081 64.3501 92.2082 64.35 92.2082 64.25C92.4082 64.05 92.6082 63.95 92.7082 63.75C93.3082 63.05 93.3082 62.45 92.7082 61.75C91.3082 60.35 90.0081 58.9501 88.6081 57.6501C87.9081 56.9501 87.3082 56.95 86.7082 57.55C84.0082 60.15 81.4081 62.85 78.8081 65.45C78.3081 65.95 78.2081 66.65 78.8081 67.25C80.5081 68.95 81.8081 70.35 83.1081 71.55C83.7081 72.15 84.3081 72.05 84.9081 71.55C85.1081 71.35 85.2081 71.15 85.4081 70.95L85.5081 70.8501C85.6081 70.9501 85.7081 71.0501 85.8081 71.1501C86.1081 71.4501 86.3081 71.75 86.6081 72.05C87.4081 72.75 87.9081 73.3501 87.6081 74.3501C87.5081 74.5501 87.6081 74.85 87.6081 75.05C87.6081 75.15 87.6081 75.15 87.6081 75.25C87.7081 75.65 87.6082 75.9501 87.2082 76.3501C85.3082 78.0501 83.2081 80.15 81.1081 82.25ZM51.3081 82.25C50.5081 83.05 49.6081 83.05 48.8081 82.25C46.2081 79.65 43.6081 77.05 41.1081 74.55C40.3081 73.75 40.4081 72.85 41.1081 72.05C44.9081 68.15 48.8082 64.35 52.7082 60.45C53.1082 60.05 53.5081 59.8501 54.0081 59.8501C54.5081 59.8501 54.9081 60.05 55.3081 60.45C57.6081 62.75 60.3081 65.4501 63.0081 68.1501C63.2081 68.3501 63.3081 68.65 63.5081 68.95C63.6081 69.05 63.6082 69.2501 63.7082 69.3501C63.6082 69.4501 63.6081 69.65 63.5081 69.75C63.4081 70.05 63.2081 70.35 63.0081 70.55C59.5081 74.05 55.9081 77.65 51.3081 82.25ZM67.2082 90.25C66.9082 89.65 66.4081 89.2501 65.6081 89.1501C64.3081 88.9501 62.9081 88.6501 61.5081 88.3501C61.3081 88.2501 61.0081 88.15 60.9081 87.95C60.1081 86.65 59.4081 85.35 58.8081 84.25C58.5081 83.65 58.0081 83.35 57.3081 83.25C56.5081 83.15 55.8081 82.9501 55.0081 82.8501C54.9081 82.8501 54.7081 82.75 54.6081 82.75L63.7082 73.6501L76.7082 86.6501L69.3081 94.05L68.8081 93.1501C68.2081 92.1501 67.7082 91.25 67.2082 90.25ZM101.208 111.15L100.908 111.45C100.408 111.95 99.9081 112.45 99.4081 112.95C99.4081 112.95 99.2081 113.05 99.0081 113.05C97.8081 112.85 96.4081 112.65 95.1081 112.35C95.0081 112.35 94.8082 112.15 94.7082 111.95C94.0082 110.85 93.3081 109.65 92.5081 108.15C92.2081 107.65 91.8082 107.35 91.2082 107.25C89.6082 106.95 88.2081 106.75 86.9081 106.45C86.6081 106.35 86.3082 106.15 86.2082 105.95C85.5082 104.75 84.8081 103.55 84.0081 102.15C83.7081 101.65 83.3082 101.35 82.7082 101.25C82.0082 101.15 81.3081 100.95 80.6081 100.85C79.9081 100.75 79.2081 100.55 78.5081 100.45C78.1081 100.35 77.8082 100.25 77.7082 99.8501C77.5082 99.4501 77.3081 99.0501 77.0081 98.6501C76.9081 98.5501 76.9081 98.4501 76.8081 98.3501L82.6081 92.55L101.208 111.15ZM84.1081 68.75L81.6081 66.25L87.8081 60.05L90.3081 62.6501L84.1081 68.75ZM87.4081 69.1501L90.7082 65.8501L91.2082 66.25C91.7082 66.75 92.3081 67.35 92.9081 67.95C93.4081 68.45 94.0082 68.65 94.7082 68.55C96.4082 68.25 98.2081 68.75 99.4081 69.95C100.708 71.15 101.208 72.8501 101.008 74.6501C100.908 75.4501 101.108 76.15 101.708 76.75C103.808 78.95 105.408 81.5501 106.508 84.6501C106.508 84.7501 106.508 84.7501 106.608 84.8501C103.808 83.8501 101.508 82.5501 99.5081 80.8501C99.0081 80.4501 98.7081 80.15 98.3081 79.75C97.9081 79.35 97.5081 79.1501 97.0081 79.1501C96.9081 79.1501 96.8081 79.1501 96.6081 79.1501C94.7081 79.4501 92.9082 78.8501 91.7082 77.6501C90.5082 76.4501 90.0081 74.65 90.3081 72.75C90.4081 72.15 90.2082 71.6501 89.7082 71.1501C89.1082 70.5501 88.5081 70.05 88.0081 69.45L87.4081 69.1501ZM88.6081 78.1501L88.7082 78.05L91.1081 80.55C91.0081 80.65 91.0081 80.65 90.9081 80.75L81.4081 90.25C74.0081 97.65 66.6081 105.05 59.3081 112.35C58.8081 112.85 58.3082 113.15 57.7082 113.15C57.0082 113.15 56.5082 112.85 56.2082 112.25C55.9082 111.65 55.9081 111.05 56.3081 110.45C56.4081 110.25 56.6082 110.15 56.7082 109.95L88.6081 78.1501Z" fill="url(#paint1_linear_319_432)"></path><path d="M59.6081 67.25C59.3081 66.85 58.9081 66.55 58.6081 66.25C57.1081 64.85 55.3081 64.85 53.9081 66.25C51.7081 68.45 49.3081 70.75 46.9081 73.25C46.5081 73.65 46.1081 74.25 46.0081 74.85C45.8081 75.75 46.1081 76.85 46.8081 77.95C47.7081 79.15 48.9081 80.0499 50.0081 80.0499H50.2082H50.3081C51.1081 80.0499 51.8081 79.75 52.4081 79.15C52.7081 78.85 52.9082 78.65 53.2082 78.35L55.3081 76.25C56.7081 74.85 58.1081 73.45 59.6081 71.95C61.0081 70.55 61.0081 68.75 59.6081 67.25ZM57.8081 70.45C55.6081 72.65 53.4081 74.85 51.1081 77.15C50.9081 77.35 50.7081 77.4499 50.5081 77.5499C50.4081 77.5499 50.4081 77.65 50.3081 77.65C50.2081 77.65 50.2081 77.6499 50.1081 77.5499C49.9081 77.4499 49.8082 77.45 49.7082 77.35C49.3082 76.95 48.8081 76.5499 48.4081 76.0499C48.1081 75.6499 48.0081 75.35 48.6081 74.75C49.4081 73.95 50.2081 73.15 51.0081 72.35L52.9081 70.45C53.7081 69.65 54.6081 68.75 55.4081 67.95C55.7081 67.65 55.9082 67.5499 56.2082 67.5499C56.4082 67.5499 56.7081 67.7499 57.0081 68.0499C57.3081 68.3499 57.5081 68.55 57.8081 68.85C58.4081 69.45 58.4081 69.85 57.8081 70.45Z" fill="url(#paint2_linear_319_432)"></path><defs><linearGradient id="paint0_linear_319_432" x1="74.7012" y1="20.913" x2="74.7012" y2="132.233" gradientUnits="userSpaceOnUse"><stop stop-color="#045090"></stop><stop offset="1" stop-color="#111427"></stop></linearGradient><linearGradient id="paint1_linear_319_432" x1="73.906" y1="20.913" x2="73.906" y2="132.233" gradientUnits="userSpaceOnUse"><stop stop-color="#045090"></stop><stop offset="1" stop-color="#111427"></stop></linearGradient><linearGradient id="paint2_linear_319_432" x1="53.2754" y1="20.913" x2="53.2754" y2="132.233" gradientUnits="userSpaceOnUse"><stop stop-color="#045090"></stop><stop offset="1" stop-color="#111427"></stop></linearGradient></defs></svg>