<svg xmlns="http://www.w3.org/2000/svg" width="150" height="150" viewBox="0 0 150 150" fill="none"><path d="M74.7077 55.8501C64.6077 55.8501 56.4077 64.0501 56.4077 74.1501C56.4077 77.8501 57.5077 81.4501 59.6077 84.5501C62.4077 89.0501 65.1077 93.2501 64.6077 101.85C64.6077 102.55 64.9077 103.15 65.4077 103.65C65.9077 104.15 66.5077 104.45 67.2077 104.45H82.1077C82.8077 104.45 83.4077 104.15 83.9077 103.65C84.4077 103.15 84.7077 102.55 84.7077 101.85C84.2077 93.2501 86.9077 89.0501 89.7077 84.5501C91.8077 81.4501 93.0077 77.8501 93.0077 74.1501C93.0077 64.0501 84.8077 55.8501 74.7077 55.8501Z" fill="#8EC3EA"></path><path d="M121.408 46.9498L74.0079 19.5498L26.6079 46.9498V130.05H121.408V46.9498V46.9498ZM85.4079 111.95C84.4079 117.05 79.9079 120.65 74.8079 120.65C69.6079 120.65 65.2079 116.95 64.2079 111.95C64.1079 111.35 64.2079 110.75 64.6079 110.25C65.0079 109.75 65.6079 109.45 66.3079 109.45H83.3079C84.0079 109.45 84.6079 109.75 85.0079 110.25C85.3079 110.75 85.5079 111.35 85.4079 111.95ZM85.6079 101.85C85.6079 102.75 85.2079 103.65 84.6079 104.25C84.0079 104.85 83.1079 105.25 82.2079 105.25H67.3079C66.4079 105.25 65.5079 104.85 64.9079 104.25C64.3079 103.65 63.9079 102.75 63.9079 101.85C64.4079 93.4498 61.9079 89.5498 59.0079 84.9498C56.8079 81.7498 55.6079 78.0498 55.6079 74.1498C55.6079 63.6498 64.2079 55.0498 74.7079 55.0498C85.2079 55.0498 93.8079 63.6498 93.8079 74.1498C93.8079 78.0498 92.6079 81.8498 90.4079 85.0498C87.6079 89.5498 85.1079 93.5498 85.6079 101.85Z" fill="#8EC3EA"></path><path d="M83.3077 110.25H66.3077C65.9077 110.25 65.5077 110.45 65.2077 110.75C65.0077 111.05 64.9077 111.45 64.9077 111.85C65.8077 116.55 70.0077 119.95 74.8077 119.95C79.6077 119.95 83.7077 116.55 84.7077 111.85C84.8077 111.45 84.7077 111.05 84.4077 110.75C84.1077 110.45 83.7077 110.25 83.3077 110.25Z" fill="#8EC3EA"></path><path d="M64.0077 86.6497C62.7077 84.6497 61.4077 82.6497 60.5077 80.4497C58.8077 76.4497 59.9077 72.1497 61.9077 68.5497C64.9077 63.2497 70.5077 59.6497 76.6077 59.1497C77.0077 59.1497 77.5077 59.1497 77.9077 59.1497C82.1077 59.1497 86.0077 60.5497 89.1077 63.0497C85.7077 58.7497 80.5077 55.9497 74.7077 55.9497C64.6077 55.9497 56.4077 64.1497 56.4077 74.2497C56.4077 77.9497 57.5077 81.5497 59.6077 84.6497C62.4077 89.1497 65.1077 93.3497 64.6077 101.95C64.6077 102.65 64.9077 103.25 65.4077 103.75C65.9077 104.25 66.5077 104.55 67.2077 104.55H69.3077C69.9077 104.35 69.5077 101.05 69.4077 100.55C69.2077 98.1497 68.9077 95.3497 67.8077 93.1497C66.8077 90.8497 65.4077 88.7497 64.0077 86.6497Z" fill="white"></path><path d="M33.6079 47.3499L78.4079 21.1499L74.0079 19.6499L26.6079 47.0499V130.15H30.6079V52.8499C30.5079 50.4499 31.7079 48.4499 33.6079 47.3499Z" fill="white"></path><path d="M68.1077 114.95C68.0077 114.55 68.1077 114.15 68.4077 113.85C68.7077 113.55 69.1077 113.35 69.5077 113.35H84.2077C84.4077 112.85 84.6077 112.25 84.7077 111.75C84.8077 111.35 84.7077 110.95 84.4077 110.65C84.1077 110.35 83.7077 110.15 83.3077 110.15H66.3077C65.9077 110.15 65.5077 110.35 65.2077 110.65C65.0077 110.95 64.9077 111.35 64.9077 111.75C65.5077 114.55 67.1077 116.85 69.4077 118.25C68.8077 117.35 68.3077 116.25 68.1077 114.95Z" fill="white"></path><path d="M74.7078 51.5501C74.0078 51.5501 73.5078 51.0501 73.5078 50.3501V42.0501C73.5078 41.3501 74.0078 40.8501 74.7078 40.8501C75.4078 40.8501 75.9078 41.3501 75.9078 42.0501V50.3501C75.9078 51.0501 75.4078 51.5501 74.7078 51.5501Z" fill="#1D1D55"></path><path d="M49.9077 76.4498H41.6077C40.9077 76.4498 40.4077 75.9498 40.4077 75.2498C40.4077 74.5498 40.9077 74.0498 41.6077 74.0498H49.9077C50.6077 74.0498 51.1077 74.5498 51.1077 75.2498C51.1077 75.9498 50.5077 76.4498 49.9077 76.4498Z" fill="#1D1D55"></path><path d="M51.3078 99.8501C51.0078 99.8501 50.7078 99.7501 50.5078 99.4501C50.0078 98.9501 50.0078 98.2501 50.5078 97.7501L56.4078 91.8501C56.9078 91.3501 57.6078 91.3501 58.1078 91.8501C58.6078 92.3501 58.6078 93.0501 58.1078 93.5501L52.2078 99.4501C51.9078 99.7501 51.6078 99.8501 51.3078 99.8501Z" fill="#1D1D55"></path><path d="M92.3078 58.8501C92.0078 58.8501 91.7078 58.7501 91.5078 58.4501C91.0078 57.9501 91.0078 57.2501 91.5078 56.7501L97.4078 50.8501C97.9078 50.3501 98.6078 50.3501 99.1078 50.8501C99.6078 51.3501 99.6078 52.0501 99.1078 52.5501L93.2078 58.4501C92.9078 58.7501 92.6078 58.8501 92.3078 58.8501Z" fill="#1D1D55"></path><path d="M57.2078 58.8501C56.9078 58.8501 56.6078 58.7501 56.4078 58.4501L50.5078 52.5501C50.0078 52.0501 50.0078 51.3501 50.5078 50.8501C51.0078 50.3501 51.7078 50.3501 52.2078 50.8501L58.1078 56.7501C58.6078 57.2501 58.6078 57.9501 58.1078 58.4501C57.8078 58.7501 57.5078 58.8501 57.2078 58.8501Z" fill="#1D1D55"></path><path d="M107.908 76.4498H99.6077C98.9077 76.4498 98.4077 75.9498 98.4077 75.2498C98.4077 74.5498 98.9077 74.0498 99.6077 74.0498H107.908C108.608 74.0498 109.108 74.5498 109.108 75.2498C109.108 75.9498 108.508 76.4498 107.908 76.4498Z" fill="#1D1D55"></path><path d="M98.2078 99.8501C97.9078 99.8501 97.6078 99.7501 97.4078 99.4501L91.5078 93.5501C91.0078 93.0501 91.0078 92.3501 91.5078 91.8501C92.0078 91.3501 92.7078 91.3501 93.2078 91.8501L99.1078 97.7501C99.6078 98.2501 99.6078 98.9501 99.1078 99.4501C98.8078 99.7501 98.5078 99.8501 98.2078 99.8501Z" fill="#1D1D55"></path><path d="M77.008 98.45H76.908C76.208 98.35 75.808 97.85 75.808 97.15L78.008 73.15H71.308L73.508 97.15C73.608 97.85 73.108 98.35 72.408 98.45C71.708 98.55 71.208 98.05 71.108 97.35L68.708 72.05C68.708 71.75 68.808 71.35 69.008 71.15C69.208 70.95 69.508 70.75 69.908 70.75H79.208C79.508 70.75 79.908 70.85 80.108 71.15C80.308 71.35 80.408 71.75 80.408 72.05L78.008 97.35C78.208 98.05 77.608 98.45 77.008 98.45Z" fill="#1D1D55"></path><path d="M82.2077 106.05H67.3077C66.2077 106.05 65.1077 105.65 64.3077 104.85C63.5077 104.05 63.1077 103.05 63.1077 101.85C63.6077 93.75 61.1077 89.85 58.4077 85.45C56.1077 82.15 54.9077 78.25 54.9077 74.15C54.9077 63.15 63.8077 54.25 74.8077 54.25C85.8077 54.25 94.7077 63.15 94.7077 74.15C94.7077 78.25 93.5077 82.15 91.2077 85.45C88.4077 89.85 86.0077 93.65 86.5077 101.75C86.5077 102.95 86.1077 103.95 85.3077 104.75C84.4077 105.65 83.3077 106.05 82.2077 106.05ZM67.3077 103.65H82.2077C82.7077 103.65 83.1077 103.45 83.5077 103.15C83.8077 102.85 84.0077 102.35 84.0077 101.85C83.5077 93.05 86.2077 88.75 89.1077 84.15C91.2077 81.15 92.2077 77.75 92.2077 74.15C92.2077 64.45 84.3077 56.65 74.7077 56.65C65.0077 56.65 57.2077 64.55 57.2077 74.15C57.2077 77.75 58.3077 81.15 60.3077 84.15C63.2077 88.75 65.9077 93.15 65.4077 101.95C65.4077 102.35 65.6077 102.85 65.9077 103.15C66.4077 103.45 66.8077 103.65 67.3077 103.65Z" fill="#1D1D55"></path><path d="M74.7078 121.45C69.2078 121.45 64.4078 117.55 63.3078 112.05C63.1078 111.25 63.4077 110.35 63.9077 109.65C64.5077 108.95 65.3078 108.55 66.2078 108.55H83.2078C84.1078 108.55 84.9077 108.95 85.5077 109.65C86.1077 110.35 86.3078 111.15 86.1078 112.05C85.1078 117.55 80.3078 121.45 74.7078 121.45ZM66.2078 111.05C66.0078 111.05 65.9078 111.15 65.8078 111.25C65.7078 111.35 65.7078 111.45 65.7078 111.65C66.6078 115.95 70.4078 119.05 74.8078 119.05C79.2078 119.05 83.0077 115.95 83.9077 111.65C83.9077 111.45 83.9078 111.35 83.8078 111.25C83.7078 111.15 83.5077 111.05 83.4077 111.05H66.2078Z" fill="#1D1D55"></path><path d="M137.308 129.25H123.008V48.85L136.708 56.75C136.908 56.85 137.108 56.95 137.308 56.95C137.708 56.95 138.108 56.75 138.308 56.35C138.608 55.75 138.408 55.05 137.908 54.75L74.6081 18.15C74.2081 17.95 73.8081 17.95 73.4081 18.15L11.6081 53.75C11.0081 54.05 10.8081 54.85 11.2081 55.35C11.5081 55.95 12.3081 56.15 12.8081 55.75L24.9081 48.75V129.15H12.2081C11.5081 129.15 11.0081 129.65 11.0081 130.35C11.0081 131.05 11.5081 131.55 12.2081 131.55H137.308C138.008 131.55 138.508 131.05 138.508 130.35C138.508 129.75 137.908 129.25 137.308 129.25ZM27.3081 47.45L73.9081 20.55L120.508 47.45V129.25H27.3081V47.45V47.45Z" fill="url(#paint0_linear_319_440)"></path><defs><linearGradient id="paint0_linear_319_440" x1="74.7414" y1="-0.633499" x2="74.7414" y2="147.216" gradientUnits="userSpaceOnUse"><stop stop-color="#045090"></stop><stop offset="1" stop-color="#111427"></stop></linearGradient></defs></svg>