<svg width="41" height="41" viewBox="0 0 41 41" fill="none" xmlns="http://www.w3.org/2000/svg">
<path d="M20.3 3.72167C25.7133 3.72167 26.39 3.72167 28.5892 3.89083C34.1717 4.06 36.7092 6.76667 36.8783 12.18C37.0475 14.3792 37.0475 14.8867 37.0475 20.3C37.0475 25.7133 37.0475 26.39 36.8783 28.42C36.7092 33.8333 34.0025 36.54 28.5892 36.7092C26.39 36.8783 25.8825 36.8783 20.3 36.8783C14.8867 36.8783 14.21 36.8783 12.18 36.7092C6.5975 36.54 4.06 33.8333 3.89083 28.42C3.72167 26.2208 3.72167 25.7133 3.72167 20.3C3.72167 14.8867 3.72167 14.21 3.89083 12.18C4.06 6.76667 6.76667 4.06 12.18 3.89083C14.21 3.72167 14.8867 3.72167 20.3 3.72167ZM20.3 0C14.7175 0 14.0408 0 12.0108 0.169167C4.5675 0.5075 0.5075 4.5675 0.169167 12.0108C0 14.0408 0 14.7175 0 20.3C0 25.8825 0 26.5592 0.169167 28.5892C0.5075 36.0325 4.5675 40.0925 12.0108 40.4308C14.0408 40.6 14.7175 40.6 20.3 40.6C25.8825 40.6 26.5592 40.6 28.5892 40.4308C36.0325 40.0925 40.0925 36.0325 40.4308 28.5892C40.6 26.5592 40.6 25.8825 40.6 20.3C40.6 14.7175 40.6 14.0408 40.4308 12.0108C40.0925 4.5675 36.0325 0.5075 28.5892 0.169167C26.5592 0 25.8825 0 20.3 0ZM20.3 9.81167C14.5483 9.81167 9.81167 14.5483 9.81167 20.3C9.81167 26.0517 14.5483 30.7883 20.3 30.7883C26.0517 30.7883 30.7883 26.0517 30.7883 20.3C30.7883 14.5483 26.0517 9.81167 20.3 9.81167ZM20.3 27.0667C16.5783 27.0667 13.5333 24.0217 13.5333 20.3C13.5333 16.5783 16.5783 13.5333 20.3 13.5333C24.0217 13.5333 27.0667 16.5783 27.0667 20.3C27.0667 24.0217 24.0217 27.0667 20.3 27.0667ZM31.1267 7.105C29.7733 7.105 28.7583 8.12 28.7583 9.47333C28.7583 10.8267 29.7733 11.8417 31.1267 11.8417C32.48 11.8417 33.495 10.8267 33.495 9.47333C33.495 8.12 32.48 7.105 31.1267 7.105Z" fill="#000428"/>
</svg>
