<svg xmlns="http://www.w3.org/2000/svg" width="150" height="150" viewBox="0 0 150 150" fill="none"><path d="M122.496 123.896L116.49 118.844L110.008 121.99L109.341 111.028L109.246 109.503V98.2546C109.818 97.8733 110.962 96.8247 112.868 94.5369C117.253 89.1989 109.246 82.0497 109.246 82.0497V52.595L64.0628 26.4766L18.8799 52.595V131.808H106.577V132.189L129.359 131.808L127.929 129.044L122.496 123.896Z" fill="#8EC3EA"></path><path d="M144.419 89.1996C142.036 85.5773 140.796 84.6241 140.129 82.0504C139.462 79.4767 135.935 71.3742 127.07 76.9029C127.07 76.9029 123.066 80.2393 122.78 82.0504C122.494 83.8615 120.779 86.7212 120.588 86.9118C120.397 87.1025 117.728 88.3417 117.919 91.678C118.11 95.0142 120.016 99.685 123.924 101.306C127.833 102.831 125.259 105.5 130.025 106.072C134.886 106.644 140.129 100.638 142.417 99.4944C144.609 98.2552 146.802 92.7265 144.419 89.1996Z" fill="#8EC3EA"></path><path d="M102.954 73.0895C102.954 73.0895 96.4718 72.9942 92.9448 77.379C89.4179 81.8592 91.1337 82.7171 91.1337 82.7171C91.1337 82.7171 87.6068 87.2926 87.7021 89.9616C87.7974 92.6307 91.6103 97.4921 93.4215 98.5407C95.2326 99.5892 96.6624 102.64 97.8063 102.735C98.9501 102.83 100.761 102.354 100.666 101.782C100.666 101.21 102.954 73.0895 102.954 73.0895Z" fill="white"></path><path d="M133.741 74.9966C133.741 74.9966 132.216 74.234 128.022 75.7591C123.828 77.2843 122.302 80.8112 122.016 82.9083C121.731 84.9101 118.585 89.009 118.394 90.5341C118.299 92.0593 118.394 97.3974 120.777 99.2085C123.16 101.02 125.543 104.261 126.02 105.023C126.497 105.786 129.547 107.406 130.024 106.739C130.5 106.072 131.453 106.262 131.644 106.072C131.835 105.881 133.741 74.9966 133.741 74.9966Z" fill="white"></path><path d="M117.062 118.559C117.062 118.559 111.533 121.323 110.77 121.514C110.008 121.705 106.385 123.421 106.29 123.897C106.195 124.374 108.101 126.471 108.768 126.757C109.436 127.043 116.204 125.327 116.585 125.041C116.871 124.755 118.11 119.894 118.11 119.894L117.062 118.559Z" fill="white"></path><path d="M104.572 122.658C104.572 122.658 99.6155 120.942 98.5669 122.181C97.423 123.421 94.3727 124.755 93.8961 125.518C93.4195 126.28 92.8475 128.282 92.4662 128.568C92.0849 128.854 89.6066 131.142 90.4645 131.809C91.3224 132.476 96.0885 132.095 96.4698 131.809C96.8511 131.523 104.572 122.658 104.572 122.658Z" fill="white"></path><path d="M25.5525 52.9771L68.257 28.0026L64.0628 26.5728L18.8799 52.5958V131.809H22.6928V58.1245C22.6928 55.9321 23.7413 54.0257 25.5525 52.9771Z" fill="white"></path><path d="M80.4582 67.9426H65.2065V96.0628H80.4582V67.9426Z" fill="white"></path><path d="M64.4445 67.9426H49.1929V96.0628H64.4445V67.9426Z" fill="white"></path><path d="M80.742 66.4177H48.8089C48.1417 66.4177 47.665 66.8943 47.665 67.5616V96.4444C47.665 97.1116 48.1417 97.5882 48.8089 97.5882H80.742C81.4093 97.5882 81.8859 97.1116 81.8859 96.4444V67.5616C81.8859 66.8943 81.4093 66.4177 80.742 66.4177ZM49.9528 68.7055H63.6792V95.3005H49.9528V68.7055ZM79.5981 95.3005H65.8716V68.7055H79.5981V95.3005Z" fill="url(#paint0_linear_319_435)"></path><path d="M112.198 131.428C111.912 130.189 111.149 129.426 110.005 129.045C109.433 128.854 109.147 128.568 108.861 128.092C108.48 127.138 107.718 126.566 106.669 126.471C105.811 126.376 105.62 126.09 105.43 125.327C105.239 123.993 104.286 123.135 103.047 122.849C101.903 122.658 100.664 123.23 100.092 124.374C99.8057 125.041 99.3291 125.232 98.6619 125.232C97.232 125.232 95.8975 126.28 95.7069 127.71C95.6116 128.568 95.2302 129.045 94.4677 129.331C93.5144 129.712 92.8472 130.379 92.3706 131.428H106.574C108.48 131.428 110.291 131.428 112.198 131.428Z" fill="#8EC3EA"></path><path d="M145.849 92.7267C145.658 89.867 144.419 87.6746 141.941 86.2447C141.369 85.9588 141.274 85.5775 141.178 84.9103C140.988 81.4786 139.558 78.7142 136.507 76.9984C134.315 75.7592 132.027 75.7592 129.835 76.7125C127.738 77.8563 126.689 79.1908 126.213 79.8581C125.259 81.3833 124.687 83.0991 124.687 84.9103C124.687 85.6728 124.401 86.1494 123.734 86.5307C119.159 89.4857 119.254 96.8256 123.925 99.6853C124.497 99.9712 125.069 100.257 125.736 100.448C126.213 100.638 126.594 100.829 126.88 101.306C127.833 103.212 129.358 104.547 131.455 105.023C131.455 105.023 133.171 105.595 135.173 104.833C136.031 104.547 136.793 104.165 137.365 103.498C138.033 102.831 138.509 101.973 139.176 101.21C139.367 100.924 139.748 100.543 140.034 100.543C143.466 99.9712 146.04 96.5396 145.849 92.7267Z" fill="#8EC3EA"></path><path d="M110.388 83.9571C109.911 83.6711 109.816 83.2898 109.72 82.7178C109.53 79.2862 108.1 76.6172 104.954 74.9967C102.857 73.9482 100.665 74.0435 98.6631 75.092C96.6613 76.2359 95.6128 77.6658 95.0408 78.619C95.0408 78.619 95.0408 78.619 95.0408 78.7143C94.3736 79.9535 93.9923 81.3834 94.0876 82.8132C94.0876 83.4805 93.8017 83.8617 93.325 84.243C88.7496 87.1027 88.8448 94.2519 93.5156 96.9209C93.9922 97.2069 94.5642 97.3976 95.1361 97.5882C95.6127 97.6835 95.8987 97.9695 96.1847 98.4461C97.0426 100.162 98.3771 101.401 100.284 101.973C100.474 102.068 100.76 102.068 101.046 102.164C101.046 102.164 101.999 102.45 103.334 102.164C103.906 101.973 104.382 101.782 104.954 101.496C106.289 100.829 107.242 99.7806 107.909 98.4461C108.1 97.9695 108.481 97.7788 108.958 97.6835C112.485 97.0162 114.773 93.394 114.391 89.6764C113.915 87.1981 112.675 85.1963 110.388 83.9571Z" fill="#8EC3EA"></path><path d="M129.167 130.665C128.691 129.235 127.738 128.282 126.308 127.901C125.736 127.71 125.45 127.424 125.164 126.947C124.592 125.613 123.639 124.946 122.209 124.66C121.351 124.469 121.16 124.278 120.97 123.42C120.684 121.8 119.635 120.656 118.11 120.275C116.68 119.893 114.964 120.465 114.297 121.705C113.725 122.848 112.963 123.23 111.723 123.23C111.056 123.23 110.484 123.516 110.008 123.897C110.008 123.897 110.008 123.897 109.912 123.992C109.817 124.088 109.722 124.183 109.626 124.278C109.15 124.66 108.482 125.422 108.197 126.185C107.815 127.329 111.819 129.902 111.819 129.902C111.819 129.902 112.2 131.809 112.486 131.904C112.772 131.999 114.011 132.667 114.583 131.904C114.678 131.809 114.774 131.618 114.774 131.523C114.964 131.523 115.155 131.523 115.346 131.523V131.428H125.736C125.831 131.428 125.926 131.427 126.022 131.523C127.166 131.523 128.214 131.523 129.358 131.523C129.263 131.142 129.263 130.951 129.167 130.665Z" fill="#8EC3EA"></path><path d="M145.466 131.142C145.276 131.142 145.18 131.142 144.99 131.142C141.177 131.142 137.364 131.142 133.551 131.142C133.36 131.142 133.075 131.142 132.884 131.142C132.884 131.046 132.789 130.951 132.789 130.951C132.789 129.521 132.789 128.187 132.789 126.757V107.406C132.789 107.311 133.075 107.025 133.17 107.025C135.839 106.453 137.841 104.928 139.27 102.736C139.366 102.545 139.652 102.354 139.938 102.259C140.796 101.782 141.749 101.496 142.607 100.924C148.04 97.1116 148.04 88.3419 142.511 84.529C142.13 84.243 142.035 84.0523 141.94 83.671C141.844 82.8131 141.654 81.9553 141.368 81.0974C139.747 76.0453 134.981 72.9949 130.024 73.7575C129.166 73.8528 128.404 74.1388 127.641 74.4248C127.641 74.4248 124.686 75.5687 122.78 78.7143C122.78 78.7143 122.78 78.8096 122.684 78.8096C121.922 80.1441 121.35 81.574 121.254 83.0991C121.159 83.957 120.873 84.5289 120.206 85.1009C117.632 87.3886 116.488 90.3437 116.87 93.7753C117.346 97.6835 119.253 100.543 123.066 101.973C123.447 102.164 123.733 102.354 123.924 102.736C125.163 104.737 126.879 106.167 129.166 106.834C129.643 106.93 130.12 107.025 130.596 107.216C130.596 107.502 130.596 107.883 130.596 108.169V126.757C130.596 128.091 130.596 129.426 130.596 130.665C130.596 130.856 130.501 130.951 130.406 131.142C130.31 130.951 130.215 130.856 130.12 130.665C129.738 128.282 128.404 126.662 126.211 125.708C125.925 125.613 125.735 125.422 125.544 125.136C124.781 123.897 123.638 122.944 122.208 122.467C121.826 122.372 121.636 122.181 121.541 121.8C120.683 119.512 119.062 118.083 116.679 117.797C114.296 117.511 112.39 118.368 110.96 120.275C110.864 120.37 110.769 120.466 110.674 120.561V98.3507C112.961 96.9209 114.296 94.8238 114.773 91.9641C115.44 88.1512 114.201 84.9102 111.055 82.4319C110.864 82.3365 110.769 82.1459 110.674 82.0506V54.407L123.733 61.9375C123.924 62.0328 124.114 62.1282 124.305 62.1282C124.686 62.1282 125.067 61.9375 125.258 61.5562C125.544 60.9843 125.353 60.317 124.877 60.031L64.5376 25.143C64.1563 24.9523 63.775 24.9523 63.3937 25.143L4.57964 59.0778C4.0077 59.3638 3.81709 60.1264 4.19838 60.603C4.48435 61.1749 5.24691 61.3656 5.72352 60.9843L17.2575 54.3117V130.951H5.15161C4.48435 130.951 4.00772 131.428 4.00772 132.095C4.00772 132.762 4.48435 133.239 5.15161 133.239H124.4C129.929 133.239 135.362 133.239 140.891 133.239C142.416 133.239 143.941 133.239 145.371 133.239C146.038 133.239 146.515 132.762 146.515 132.19C146.61 131.618 146.134 131.142 145.466 131.142ZM105.336 131.046H91.1326C91.6092 129.998 92.2765 129.331 93.2297 128.949C93.9923 128.663 94.3735 128.187 94.4689 127.329C94.5642 125.899 95.8987 124.85 97.4239 124.85C98.0912 124.85 98.5678 124.66 98.8537 123.993C99.4257 122.849 100.57 122.277 101.809 122.467C103.048 122.658 104.001 123.611 104.192 124.946C104.287 125.804 104.573 125.994 105.431 126.09C106.48 126.28 107.147 126.852 107.623 127.71C107.814 128.187 108.195 128.473 108.767 128.663C109.911 129.045 110.674 129.807 110.96 131.046C108.958 131.046 107.147 131.046 105.336 131.046ZM107.528 121.895C106.956 122.372 106.48 122.849 106.003 123.325C106.003 123.23 105.908 123.135 105.812 123.039C105.24 121.895 104.382 121.133 103.143 120.656C102.667 120.466 101.999 120.37 101.809 119.989C101.809 119.894 101.809 119.894 101.713 119.798V104.451C101.713 104.165 101.809 103.975 102.19 103.879C104.668 103.308 106.575 101.878 108.005 99.6853C108.1 99.4946 108.291 99.304 108.481 99.304V121.228C108.1 121.419 107.814 121.609 107.528 121.895ZM112.771 89.3904C113.247 93.108 110.864 96.7303 107.337 97.3975C106.861 97.4928 106.48 97.7788 106.289 98.1601C105.622 99.4946 104.668 100.543 103.334 101.21C102.857 101.496 102.285 101.592 101.713 101.878C101.713 101.687 101.618 101.592 101.618 101.496C101.618 99.018 101.618 96.5396 101.618 93.9659C101.618 93.7753 101.809 93.4893 101.999 93.2987C103.334 92.0595 104.764 90.7249 106.098 89.4858C106.67 88.9138 106.766 88.3419 106.289 87.8653C105.812 87.3886 105.145 87.3886 104.573 87.8653C103.715 88.6278 102.857 89.3904 101.999 90.153C101.904 90.2483 101.713 90.3436 101.523 90.5343C101.523 90.2483 101.523 89.9624 101.523 89.7717C101.523 88.0559 101.523 86.3401 101.523 84.7196C101.523 84.0524 101.046 83.5758 100.474 83.4804C99.807 83.4804 99.3304 83.957 99.3304 84.6243C99.3304 84.8149 99.3304 84.9102 99.3304 85.1009C99.3304 88.3418 99.3304 91.6782 99.3304 94.9192C99.3304 95.1098 99.3304 95.3004 99.3304 95.6817C99.0444 95.3958 98.8537 95.3004 98.6631 95.1098C97.9005 94.3472 97.0426 93.5846 96.28 92.9173C95.994 92.7267 95.6128 92.5361 95.3268 92.5361C94.9455 92.6314 94.6595 92.9173 94.4689 93.2033C94.2782 93.5846 94.3736 94.0613 94.7549 94.4425C96.1847 95.6817 97.5192 97.0162 98.949 98.3507C99.0444 98.4461 99.235 98.6367 99.235 98.8274C99.235 99.7806 99.235 100.734 99.235 101.782C98.949 101.687 98.7584 101.687 98.4724 101.592C96.566 101.02 95.2315 99.7806 94.3736 98.0648C94.1829 97.5882 93.8016 97.3975 93.325 97.2069C92.7531 97.0162 92.1812 96.8256 91.7045 96.5396C87.0337 93.8706 86.9384 86.7214 91.5139 83.8617C92.0858 83.4804 92.2765 83.0991 92.2765 82.4319C92.2765 81.002 92.6577 79.6675 93.2297 78.333C93.2297 78.333 93.2297 78.333 93.2297 78.2377C93.7063 77.2845 94.8502 75.7593 96.8519 74.7107C98.949 73.6622 101.046 73.5668 103.143 74.6154C106.289 76.1406 107.719 78.9049 107.909 82.3366C107.909 82.8132 108.1 83.2898 108.577 83.5757C111.246 84.9103 112.485 86.8167 112.771 89.3904ZM19.6406 53.0725L64.061 27.4307L108.481 53.0725V76.0452C106.384 73.0902 102.857 71.4698 99.1397 71.9464C97.9005 72.137 96.7567 72.5183 95.7081 73.1856C95.7081 73.1856 93.1344 74.7107 91.7045 77.4751C91.7045 77.4751 91.7045 77.4751 91.7045 77.5704C91.7045 77.6657 91.6092 77.7611 91.6092 77.8564C91.0372 79.0956 90.656 80.4301 90.5607 81.8599C90.5607 82.0506 90.37 82.3366 90.1793 82.5272C88.0822 84.1477 86.8431 86.1495 86.4618 88.7232C85.6992 93.394 88.3682 97.9695 92.4671 99.304C92.6578 99.3993 92.8484 99.5899 93.039 99.7806C94.4689 102.068 96.4707 103.593 99.1397 104.07C99.4257 104.165 99.521 104.261 99.521 104.547V118.845C99.521 119.036 99.521 119.226 99.521 119.417V119.608C99.521 119.798 99.521 120.084 99.521 120.275C99.521 120.466 99.3303 120.752 99.1397 120.847C98.3771 121.228 97.6146 121.8 97.1379 122.563C97.0426 122.658 96.852 122.849 96.6613 122.849C94.4689 123.23 93.0391 124.564 92.3718 126.662C92.2765 126.852 92.0858 127.138 91.8952 127.329C90.7513 127.996 89.7981 128.854 89.3215 130.093C89.1308 130.665 88.8448 131.046 88.4635 131.332H19.736V53.0725H19.6406ZM124.686 131.142C124.591 131.142 124.496 131.046 124.4 131.046H114.01V131.142C113.724 131.142 113.343 131.142 113.057 131.142C112.961 130.76 112.866 130.284 112.676 129.903C112.104 128.473 111.15 127.424 109.816 126.852C109.53 126.757 109.339 126.471 109.149 126.28C108.672 125.804 108.291 125.232 107.719 124.66C108.291 123.707 109.149 123.039 110.292 123.039C111.532 123.039 112.199 122.658 112.866 121.514C113.629 120.18 115.249 119.703 116.679 120.084C118.204 120.466 119.348 121.705 119.539 123.23C119.634 124.088 119.92 124.279 120.778 124.469C122.208 124.66 123.161 125.422 123.733 126.757C123.924 127.233 124.305 127.519 124.877 127.71C126.307 128.091 127.26 129.045 127.736 130.474C127.832 130.665 127.832 130.951 127.832 131.142C126.879 131.142 125.735 131.142 124.686 131.142ZM132.789 96.8256C132.789 96.4443 132.979 96.1583 133.265 95.8724C134.695 94.6332 136.125 93.2986 137.459 91.9641C137.65 91.7735 137.841 91.5829 137.936 91.3922C138.127 90.9156 138.031 90.439 137.555 90.153C137.173 89.8671 136.602 89.867 136.125 90.2483C135.172 91.1062 134.314 91.9641 133.361 92.822C133.265 92.9174 133.075 93.108 132.789 93.2987C132.789 92.6314 132.789 92.1548 132.789 91.5829C132.789 90.0577 132.789 88.5325 132.789 87.1027C132.789 86.3401 132.312 85.8635 131.645 85.9588C130.977 85.9588 130.596 86.4354 130.596 87.198C130.596 87.3886 130.596 87.484 130.596 87.6746C130.596 91.1062 130.596 94.5378 130.596 97.9694C130.596 98.1601 130.596 98.4461 130.596 98.7321C130.406 98.5414 130.31 98.4461 130.215 98.3507C129.262 97.4928 128.308 96.635 127.355 95.6817C126.974 95.3958 126.593 95.2051 126.116 95.4911C125.83 95.6817 125.544 96.063 125.449 96.4443C125.449 96.7303 125.639 97.2069 125.925 97.4928C127.355 98.8273 128.88 100.162 130.31 101.496C130.405 101.592 130.596 101.687 130.596 101.878C130.596 102.926 130.596 103.975 130.596 105.023C130.31 104.928 130.215 104.928 130.024 104.928C127.927 104.356 126.402 103.117 125.449 101.21C125.163 100.734 124.877 100.448 124.305 100.352C123.733 100.162 123.066 99.9712 122.494 99.5899C117.823 96.7303 117.728 89.3904 122.303 86.4354C122.97 86.0541 123.256 85.5775 123.256 84.8149C123.256 83.0038 123.828 81.288 124.782 79.7628C125.163 79.1909 126.307 77.7611 128.404 76.6172C130.691 75.664 132.884 75.664 135.076 76.9032C138.127 78.619 139.556 81.3833 139.747 84.8149C139.747 85.3869 139.938 85.7682 140.51 86.1495C142.988 87.5793 144.227 89.7717 144.418 92.6314C144.609 96.4443 142.035 99.9712 138.603 100.543C138.317 100.638 137.936 100.924 137.745 101.21C137.173 101.973 136.601 102.831 135.934 103.498C135.076 104.356 134.028 104.833 132.884 105.023C132.884 104.833 132.884 104.642 132.884 104.451C132.789 101.782 132.789 99.304 132.789 96.8256Z" fill="url(#paint1_linear_319_435)"></path><defs><linearGradient id="paint0_linear_319_435" x1="64.8017" y1="28.3591" x2="64.8017" y2="144.015" gradientUnits="userSpaceOnUse"><stop stop-color="#045090"></stop><stop offset="1" stop-color="#111427"></stop></linearGradient><linearGradient id="paint1_linear_319_435" x1="75.348" y1="7.23368" x2="75.348" y2="148.168" gradientUnits="userSpaceOnUse"><stop stop-color="#045090"></stop><stop offset="1" stop-color="#111427"></stop></linearGradient></defs></svg>