<svg xmlns="http://www.w3.org/2000/svg" width="150" height="150" viewBox="0 0 150 150" fill="none"><path d="M73.8082 20.6499L26.4082 47.9499V131.05H121.308V47.9499L73.8082 20.6499Z" fill="#8EC3EA"></path><path d="M33.5078 48.3499L78.3077 22.1499L73.9077 20.6499L26.5078 48.0499V131.15H30.5078V53.8499C30.4078 51.5499 31.6078 49.4499 33.5078 48.3499Z" fill="white"></path><path d="M137.208 130.25H122.908V49.85L136.608 57.75C136.808 57.85 137.008 57.95 137.208 57.95C137.608 57.95 138.008 57.75 138.208 57.35C138.508 56.75 138.308 56.05 137.808 55.75L74.5081 19.15C74.1081 18.95 73.7081 18.95 73.3081 19.15L11.6081 54.75C11.0081 55.05 10.8081 55.85 11.2081 56.35C11.5081 56.95 12.3081 57.15 12.8081 56.75L24.908 49.75V130.15H12.2081C11.5081 130.15 11.0081 130.65 11.0081 131.35C11.0081 132.05 11.5081 132.55 12.2081 132.55H137.208C137.908 132.55 138.408 132.05 138.408 131.35C138.408 130.85 137.808 130.25 137.208 130.25ZM27.2081 48.45L73.8081 21.55L120.408 48.45V130.25H27.2081V48.45Z" fill="url(#paint0_linear_319_433)"></path><path d="M91.0078 69.8501H75.0078V99.3501H91.0078V69.8501Z" fill="white"></path><path d="M74.3081 69.8501H58.3081V99.3501H74.3081V69.8501Z" fill="white"></path><path d="M91.408 68.25H57.908C57.208 68.25 56.708 68.75 56.708 69.45V99.75C56.708 100.45 57.208 100.95 57.908 100.95H91.408C92.108 100.95 92.608 100.45 92.608 99.75V69.45C92.608 68.75 92.108 68.25 91.408 68.25ZM59.108 70.65H73.5081V98.55H59.108V70.65ZM90.208 98.55H75.808V70.65H90.208V98.55Z" fill="url(#paint1_linear_319_433)"></path><defs><linearGradient id="paint0_linear_319_433" x1="74.6487" y1="0.384307" x2="74.6487" y2="148.234" gradientUnits="userSpaceOnUse"><stop stop-color="#045090"></stop><stop offset="1" stop-color="#111427"></stop></linearGradient><linearGradient id="paint1_linear_319_433" x1="74.6486" y1="28.2966" x2="74.6486" y2="149.628" gradientUnits="userSpaceOnUse"><stop stop-color="#045090"></stop><stop offset="1" stop-color="#111427"></stop></linearGradient></defs></svg>