<svg xmlns="http://www.w3.org/2000/svg" width="150" height="150" viewBox="0 0 150 150" fill="none"><path d="M73.9077 20.5498L26.5078 47.9498V131.05H121.308V47.9498L73.9077 20.5498Z" fill="#8EC3EA"></path><path d="M33.5078 48.2498L78.3077 22.0498L73.9077 20.5498L26.5078 47.9498V131.05H30.5078V53.7498C30.4078 51.4498 31.6078 49.4498 33.5078 48.2498Z" fill="white"></path><path d="M137.208 130.25H122.908V49.85L136.608 57.75C136.808 57.85 137.008 57.95 137.208 57.95C137.608 57.95 138.008 57.75 138.208 57.35C138.508 56.75 138.308 56.05 137.808 55.75L74.5081 19.15C74.1081 18.95 73.7081 18.95 73.3081 19.15L11.6081 54.75C11.0081 55.05 10.8081 55.85 11.2081 56.35C11.5081 56.95 12.3081 57.15 12.8081 56.75L24.908 49.75V130.25H12.2081C11.5081 130.25 11.0081 130.75 11.0081 131.45C11.0081 132.15 11.5081 132.65 12.2081 132.65H137.308C138.008 132.65 138.508 132.15 138.508 131.45C138.408 130.75 137.908 130.25 137.208 130.25ZM27.3081 48.35L73.908 21.45L120.508 48.35V130.25H27.3081V48.35V48.35Z" fill="url(#paint0_linear_319_431)"></path><path d="M45.6079 59.9502L46.4078 116.75C46.4078 116.75 50.2079 125.25 55.8079 122.15C61.4079 119.05 61.3079 117.85 63.5079 120.95C65.7079 124.05 72.7078 121.75 74.4078 119.35C76.1078 116.95 77.6079 122.25 79.5079 122.15C81.4079 122.05 87.9079 121.95 89.1079 118.35C90.3079 114.75 89.9079 122.45 94.5079 122.45C99.1079 122.45 103.908 122.95 104.208 113.25C104.608 103.45 103.808 60.7502 103.808 60.7502L45.6079 59.9502Z" fill="white"></path><path d="M89.0083 95.2502C87.5083 96.8502 85.4083 97.7502 83.0083 97.7502C80.7083 97.7502 78.5083 96.7502 77.0083 95.2502V101.65C77.0083 104.95 79.7083 107.65 83.0083 107.65C86.3083 107.65 89.0083 104.95 89.0083 101.65V95.2502Z" fill="#8EC3EA"></path><path d="M89.0083 83.0503C87.5083 84.6503 85.4083 85.5503 83.0083 85.5503C80.7083 85.5503 78.5083 84.5503 77.0083 83.0503V89.5503C77.0083 92.8503 79.7083 95.5503 83.0083 95.5503C86.3083 95.5503 89.0083 92.8503 89.0083 89.5503V83.0503Z" fill="#8EC3EA"></path><path d="M89.0083 69.8502V59.9502H77.0083V69.8502V77.2502C77.0083 80.5502 79.7083 83.2502 83.0083 83.2502C86.3083 83.2502 89.0083 80.5502 89.0083 77.2502V69.8502Z" fill="#8EC3EA"></path><path d="M103.308 69.8502V59.9502H91.3081V69.8502V77.2502C91.3081 80.5502 94.0081 83.2502 97.3081 83.2502C100.608 83.2502 103.308 80.5502 103.308 77.2502V69.8502Z" fill="#8EC3EA"></path><path d="M77.0083 107.45V113.85C77.0083 117.15 79.7083 119.85 83.0083 119.85C86.3083 119.85 89.0083 117.15 89.0083 113.85V107.45C87.5083 109.05 85.4083 109.95 83.0083 109.95C80.6083 110.05 78.5083 109.05 77.0083 107.45Z" fill="#8EC3EA"></path><path d="M103.308 95.2502C101.808 96.8502 99.7081 97.7502 97.3081 97.7502C95.0081 97.7502 92.8081 96.7502 91.3081 95.2502V101.65C91.3081 104.95 94.0081 107.65 97.3081 107.65C100.608 107.65 103.308 104.95 103.308 101.65V95.2502Z" fill="#8EC3EA"></path><path d="M91.3081 107.45V113.85C91.3081 117.15 94.0081 119.85 97.3081 119.85C100.608 119.85 103.308 117.15 103.308 113.85V107.45C101.808 109.05 99.7081 109.95 97.3081 109.95C95.0081 110.05 92.8081 109.05 91.3081 107.45Z" fill="#8EC3EA"></path><path d="M103.308 83.0503C101.808 84.6503 99.7081 85.5503 97.3081 85.5503C95.0081 85.5503 92.8081 84.5503 91.3081 83.0503V89.5503C91.3081 92.8503 94.0081 95.5503 97.3081 95.5503C100.608 95.5503 103.308 92.8503 103.308 89.5503V83.0503Z" fill="#8EC3EA"></path><path d="M60.3081 83.0503C58.8081 84.6503 56.7081 85.5503 54.3081 85.5503C52.0081 85.5503 49.8081 84.5503 48.3081 83.0503V89.5503C48.3081 92.8503 51.0081 95.5503 54.3081 95.5503C57.6081 95.5503 60.3081 92.8503 60.3081 89.5503V83.0503Z" fill="#8EC3EA"></path><path d="M60.3081 69.8502V59.9502H48.3081V69.8502V77.2502C48.3081 80.5502 51.0081 83.2502 54.3081 83.2502C57.6081 83.2502 60.3081 80.5502 60.3081 77.2502V69.8502Z" fill="#8EC3EA"></path><path d="M48.4082 107.45V113.85C48.4082 117.15 51.1082 119.85 54.4082 119.85C57.7082 119.85 60.4082 117.15 60.4082 113.85V107.45C58.9082 109.05 56.8082 109.95 54.4082 109.95C52.0082 110.05 49.9082 109.05 48.4082 107.45Z" fill="#8EC3EA"></path><path d="M60.3081 95.2502C58.8081 96.8502 56.7081 97.7502 54.3081 97.7502C52.0081 97.7502 49.8081 96.7502 48.3081 95.2502V101.65C48.3081 104.95 51.0081 107.65 54.3081 107.65C57.6081 107.65 60.3081 104.95 60.3081 101.65V95.2502Z" fill="#8EC3EA"></path><path d="M62.708 107.45V113.85C62.708 117.15 65.408 119.85 68.708 119.85C72.008 119.85 74.708 117.15 74.708 113.85V107.45C73.208 109.05 71.108 109.95 68.708 109.95C66.308 110.05 64.208 109.05 62.708 107.45Z" fill="#8EC3EA"></path><path d="M74.708 95.2502C73.208 96.8502 71.108 97.7502 68.708 97.7502C66.408 97.7502 64.208 96.7502 62.708 95.2502V101.65C62.708 104.95 65.408 107.65 68.708 107.65C72.008 107.65 74.708 104.95 74.708 101.65V95.2502Z" fill="#8EC3EA"></path><path d="M74.708 83.0503C73.208 84.6503 71.108 85.5503 68.708 85.5503C66.408 85.5503 64.208 84.5503 62.708 83.0503V89.5503C62.708 92.8503 65.408 95.5503 68.708 95.5503C72.008 95.5503 74.708 92.8503 74.708 89.5503V83.0503Z" fill="#8EC3EA"></path><path d="M74.708 69.8502V59.9502H62.708V69.8502V77.2502C62.708 80.5502 65.408 83.2502 68.708 83.2502C72.008 83.2502 74.708 80.5502 74.708 77.2502V69.8502Z" fill="#8EC3EA"></path><path d="M102.108 59.25H90.1083H87.8082H75.8082H73.5083H61.5083H59.2083H47.2083H44.9082V61.55V71.45V78.85V83.55V91.05V95.65V103.15V115.35C44.9082 119.95 48.6083 123.65 53.2083 123.65C56.2083 123.65 58.9082 122.05 60.4082 119.55C61.9082 121.95 64.5083 123.65 67.6083 123.65C70.6083 123.65 73.3082 122.05 74.8082 119.55C76.3082 121.95 78.9083 123.65 82.0083 123.65C85.0083 123.65 87.7083 122.05 89.2083 119.55C90.7083 121.95 93.3082 123.65 96.4082 123.65C101.008 123.65 104.708 119.95 104.708 115.35V103.15V95.65V91.25V83.75V79.05V71.65V61.75V59.25H102.108ZM87.8082 61.65V71.55V78.95C87.8082 82.25 85.1082 84.95 81.8082 84.95C78.5082 84.95 75.8082 82.25 75.8082 78.95V71.55V61.65H87.8082ZM61.5083 84.75C63.0083 86.35 65.1083 87.25 67.5083 87.25C69.8083 87.25 72.0083 86.25 73.5083 84.75V91.25C73.5083 94.55 70.8083 97.25 67.5083 97.25C64.2083 97.25 61.5083 94.55 61.5083 91.25V84.75ZM61.5083 96.95C63.0083 98.55 65.1083 99.45 67.5083 99.45C69.8083 99.45 72.0083 98.45 73.5083 96.95V103.35C73.5083 106.65 70.8083 109.35 67.5083 109.35C64.2083 109.35 61.5083 106.65 61.5083 103.35V96.95ZM75.8082 96.95C77.3082 98.55 79.4082 99.45 81.8082 99.45C84.1082 99.45 86.3082 98.45 87.8082 96.95V103.35C87.8082 106.65 85.1082 109.35 81.8082 109.35C78.5082 109.35 75.8082 106.65 75.8082 103.35V96.95ZM81.8082 97.15C78.5082 97.15 75.8082 94.45 75.8082 91.15V84.65C77.3082 86.25 79.4082 87.15 81.8082 87.15C84.1082 87.15 86.3082 86.15 87.8082 84.65V91.15C87.8082 94.55 85.1082 97.15 81.8082 97.15ZM73.5083 61.65V71.55V78.95C73.5083 82.25 70.8083 84.95 67.5083 84.95C64.2083 84.95 61.5083 82.25 61.5083 78.95V71.55V61.65H73.5083ZM47.2083 71.55V61.65H59.2083V71.55V78.95C59.2083 82.25 56.5083 84.95 53.2083 84.95C49.9083 84.95 47.2083 82.25 47.2083 78.95V71.55ZM47.2083 84.75C48.7083 86.35 50.8083 87.25 53.2083 87.25C55.5083 87.25 57.7083 86.25 59.2083 84.75V91.25C59.2083 94.55 56.5083 97.25 53.2083 97.25C49.9083 97.25 47.2083 94.55 47.2083 91.25V84.75ZM47.2083 96.95C48.7083 98.55 50.8083 99.45 53.2083 99.45C55.5083 99.45 57.7083 98.45 59.2083 96.95V103.35C59.2083 106.65 56.5083 109.35 53.2083 109.35C49.9083 109.35 47.2083 106.65 47.2083 103.35V96.95ZM53.2083 121.55C49.9083 121.55 47.2083 118.85 47.2083 115.55V109.15C48.7083 110.75 50.8083 111.65 53.2083 111.65C55.5083 111.65 57.7083 110.65 59.2083 109.15V115.55C59.2083 118.85 56.5083 121.55 53.2083 121.55ZM67.5083 121.55C64.2083 121.55 61.5083 118.85 61.5083 115.55V109.15C63.0083 110.75 65.1083 111.65 67.5083 111.65C69.8083 111.65 72.0083 110.65 73.5083 109.15V115.55C73.5083 118.85 70.8083 121.55 67.5083 121.55ZM81.8082 121.55C78.5082 121.55 75.8082 118.85 75.8082 115.55V109.15C77.3082 110.75 79.4082 111.65 81.8082 111.65C84.1082 111.65 86.3082 110.65 87.8082 109.15V115.55C87.8082 118.85 85.1082 121.55 81.8082 121.55ZM102.108 115.55C102.108 118.85 99.4083 121.55 96.1083 121.55C92.8083 121.55 90.1083 118.85 90.1083 115.55V109.15C91.6083 110.75 93.7083 111.65 96.1083 111.65C98.4083 111.65 100.608 110.65 102.108 109.15V115.55ZM96.1083 109.35C92.8083 109.35 90.1083 106.65 90.1083 103.35V96.95C91.6083 98.55 93.7083 99.45 96.1083 99.45C98.4083 99.45 100.608 98.45 102.108 96.95V103.35C102.108 106.65 99.4083 109.35 96.1083 109.35ZM96.1083 97.15C92.8083 97.15 90.1083 94.45 90.1083 91.15V84.65C91.6083 86.25 93.7083 87.15 96.1083 87.15C98.4083 87.15 100.608 86.15 102.108 84.65V91.15C102.108 94.55 99.4083 97.15 96.1083 97.15ZM102.108 71.55V78.95C102.108 82.25 99.4083 84.95 96.1083 84.95C92.8083 84.95 90.1083 82.25 90.1083 78.95V71.55V61.65H102.108V71.55Z" fill="url(#paint1_linear_319_431)"></path><defs><linearGradient id="paint0_linear_319_431" x1="74.674" y1="0.318499" x2="74.674" y2="148.168" gradientUnits="userSpaceOnUse"><stop stop-color="#045090"></stop><stop offset="1" stop-color="#111427"></stop></linearGradient><linearGradient id="paint1_linear_319_431" x1="74.6741" y1="20.6801" x2="74.6741" y2="160.562" gradientUnits="userSpaceOnUse"><stop stop-color="#045090"></stop><stop offset="1" stop-color="#111427"></stop></linearGradient></defs></svg>