<svg xmlns="http://www.w3.org/2000/svg" width="167" height="99" viewBox="0 0 167 99" fill="none"><path d="M18.1978 54.5574C17.8228 54.6771 17.4895 54.7553 17.177 54.8751C14.5936 55.8803 12.0207 56.8855 9.44258 57.9167C8.04154 58.5313 6.59883 59.0209 5.10925 59.3855C4.68217 59.5157 4.2655 59.4896 3.85404 59.3126C3.56237 59.1824 3.34883 58.9792 3.20821 58.6928C3.07279 58.4011 3.04675 58.1094 3.13008 57.8021C3.18737 57.5626 3.17696 57.323 3.08842 57.0886C2.92175 56.573 2.80717 56.0365 2.62487 55.5157C2.5155 55.2084 2.38529 54.9115 2.22904 54.6251C1.7655 53.7501 1.84883 52.7449 1.53633 51.8438C1.49987 51.573 1.56237 51.323 1.72383 51.099C1.92696 50.7761 1.92696 50.448 1.72383 50.1251C1.36967 49.4219 1.13008 48.6824 1.01029 47.9063C0.906126 47.5105 0.937374 47.1251 1.10404 46.7501C1.27071 46.3751 1.53633 46.0886 1.89571 45.8959C2.94779 45.2761 4.0155 44.6876 5.11446 44.1459C7.19779 43.1719 9.328 42.3074 11.5051 41.5574C13.552 40.7917 15.5832 40.0209 17.6145 39.2396C18.177 39.0053 18.7238 38.7344 19.2603 38.4376C19.5051 38.3282 19.6718 38.1407 19.7603 37.8855C19.8436 37.6251 19.8176 37.3803 19.6874 37.1407C19.0936 36.0626 18.8384 34.9115 18.9217 33.6824C18.9113 33.5938 18.8957 33.5053 18.8801 33.4167C18.7238 33.3855 18.5676 33.3855 18.4113 33.4167C17.6249 33.6771 16.8228 33.9219 16.0884 34.2605C14.578 34.974 13.0155 35.5574 11.4009 36.0053C10.8592 36.1667 10.3176 36.1511 9.78633 35.9532C9.22383 35.7605 8.86446 35.3699 8.70821 34.7969C8.61446 34.4636 8.55196 34.1199 8.52592 33.7761C8.46342 33.0521 8.42696 32.323 8.3905 31.599C8.3905 31.3699 8.3905 31.1667 8.10925 31.0521C7.97383 30.9844 7.8905 30.8803 7.85925 30.7396C7.77592 29.9949 7.71342 29.2501 7.64571 28.5001C7.63008 28.4376 7.64571 28.3751 7.68217 28.323C8.07279 28.0105 7.88008 27.6459 7.81237 27.2761C7.703 26.7396 7.65613 26.1928 7.55196 25.6511C7.48425 25.3959 7.38529 25.1563 7.25508 24.9271C7.19779 24.8021 7.03633 24.6928 7.02592 24.5782C6.98946 23.9428 6.67175 23.3386 6.80717 22.6824C6.828 22.5626 6.83842 22.4376 6.83321 22.3178C6.81237 21.8386 6.94258 21.4063 7.21862 21.0209C7.49467 20.6355 7.85925 20.3699 8.31758 20.2344C12.1249 18.698 16.0363 17.3074 19.9842 16.0782C27.3697 13.7605 34.854 11.8126 42.4374 10.2344C47.3801 9.19277 52.3384 8.24486 57.3176 7.3334C60.7238 6.7136 64.1561 6.2136 67.578 5.69277C70.3697 5.2761 73.1457 4.88027 75.9218 4.51048C78.4061 4.18236 80.8957 3.9011 83.3593 3.61465C85.8228 3.32298 88.2968 3.05215 90.7707 2.80215C92.7343 2.60423 94.703 2.44277 96.677 2.2709C98.8905 2.07819 101.104 1.89069 103.312 1.7084C104.573 1.59902 105.833 1.5209 107.099 1.44277C109.698 1.2761 112.297 1.11985 114.901 0.97923C115.781 0.932355 116.651 0.880271 117.526 0.85423C120.396 0.750063 123.276 0.66673 126.146 0.562563C131.974 0.343812 137.807 0.312563 143.635 0.369855C146.797 0.401104 149.958 0.515689 153.114 0.593813C153.661 0.593813 153.818 0.739648 153.995 1.26048C154.146 1.66152 154.13 2.05736 153.948 2.44277C153.729 2.85944 153.677 3.29173 153.786 3.74485C153.901 4.28652 153.818 4.79694 153.547 5.28131C153.141 6.0834 152.854 6.92715 152.698 7.81256C152.583 8.32298 152.354 8.7709 152.005 9.15631C151.724 9.48444 151.432 9.8334 151.661 10.3021C151.896 10.7709 152.318 10.7136 152.734 10.7084C152.875 10.6824 153.016 10.6824 153.161 10.7084C153.953 10.9219 154.359 11.3282 154.167 12.1511C154.031 12.6824 153.87 13.2032 153.677 13.7084C153.505 14.0938 153.463 14.4896 153.557 14.8959C153.755 15.6824 153.599 16.3959 153.088 17.0313C152.771 17.4949 152.614 18.0105 152.625 18.5782C152.854 18.6407 153.088 18.6824 153.323 18.7136C153.953 18.7709 154.583 18.8282 155.213 18.849C157.271 18.9063 159.333 18.9428 161.385 19.0157C161.75 19.0313 162.109 19.099 162.458 19.2032C162.646 19.2501 162.807 19.3438 162.932 19.4949C163.062 19.6407 163.135 19.8126 163.151 20.0053C163.307 20.599 163.531 21.1615 163.823 21.698C164.047 22.1615 164.104 22.2969 163.693 22.6615C162.943 23.3803 162.516 24.2605 162.411 25.2917C162.245 26.2136 161.849 27.0261 161.234 27.7344C160.911 28.1667 160.776 28.6511 160.823 29.1928C160.823 29.9792 160.562 30.6771 160.047 31.2761C159.797 31.5313 159.594 31.823 159.437 32.1459C159.312 32.5574 159.031 32.7709 158.599 32.7969C156.552 33.0782 154.5 33.1459 152.437 33.0053C151.547 32.9428 150.646 32.9324 149.75 32.8907C149.604 32.8699 149.469 32.9011 149.344 32.9844C149.219 33.0626 149.135 33.1771 149.099 33.323C149.031 33.4949 148.989 33.6719 148.958 33.849C148.88 34.5521 149.052 34.7761 149.766 34.8386C152.364 35.1146 154.969 35.2136 157.578 35.1355C160.318 35.0261 163.042 35.1824 165.75 35.599C165.87 35.6146 165.989 35.6355 166.104 35.6615C166.463 35.7865 166.573 35.9896 166.37 36.3178C166.182 36.6303 166.141 36.9636 166.239 37.3126C166.338 37.7084 166.266 38.073 166.021 38.4011C165.896 38.6771 165.797 38.9584 165.713 39.2501C165.651 39.5261 165.536 39.7813 165.37 40.0157C164.885 40.5782 164.521 41.2084 164.281 41.9063C164.182 42.1511 164.068 42.3699 163.984 42.6459C163.932 42.7709 163.854 42.9532 163.906 43.0469C164.109 43.4428 163.906 43.7605 163.76 44.0834C163.495 44.8126 163.114 45.4844 162.63 46.0886C162.557 46.1876 162.51 46.2969 162.484 46.4167C162.458 46.5157 162.443 46.6251 162.417 46.7188C162.047 48.0209 161.719 48.2657 160.354 48.2657C157.864 48.2657 155.385 48.1199 152.911 47.9011C152.771 47.8646 152.63 47.8803 152.5 47.9532C152.37 48.0261 152.281 48.1303 152.234 48.2709C152.047 48.7709 151.844 49.2553 151.693 49.7553C151.656 49.9324 151.693 50.0834 151.807 50.2188C152.021 50.3594 152.094 50.5574 152.036 50.8021C151.979 51.3074 151.911 51.8126 151.828 52.3074C151.766 52.6459 151.635 52.9688 151.594 53.3126C151.562 53.8751 151.323 54.3282 150.875 54.6719C150.724 54.8126 150.625 54.9792 150.573 55.1771C150.333 55.9063 150.104 56.6563 149.906 57.3907C149.823 57.6199 149.76 57.8542 149.708 58.0938C149.682 58.5782 149.453 58.9376 149.016 59.1667C148.818 59.3126 148.687 59.5053 148.62 59.7449C148.552 60.0157 148.505 60.2969 148.479 60.5782C148.422 60.849 148.338 61.1199 148.26 61.3907C148.229 61.4844 148.135 61.5678 148.135 61.6615C148.135 62.2969 147.739 62.6876 147.349 63.1094C147.12 63.3699 146.917 63.6511 146.755 63.9584C146.568 64.2969 146.286 64.448 145.901 64.4219C144.859 64.4532 143.823 64.5001 142.786 64.5365C141.364 64.5938 139.937 64.6303 138.51 64.7032C135.885 64.8386 133.266 64.9949 130.635 65.1667C129.239 65.2449 127.844 65.3282 126.427 65.4271C124.318 65.573 122.203 65.7396 120.088 65.8907C118.443 66.0157 116.797 66.1407 115.156 66.2917C113.297 66.4584 111.469 66.6667 109.625 66.8594C108.083 67.0209 106.547 67.1876 105.016 67.3699C103.292 67.5782 101.573 67.7865 99.8645 68.0209C97.6978 68.323 95.5415 68.6199 93.3957 68.9844C90.1613 69.5261 86.9322 70.0886 83.7134 70.7084C77.0311 72.0001 70.4165 73.5782 63.854 75.3438C54.2342 77.9428 44.7343 80.9063 35.2759 84.0313C31.3697 85.3126 27.4686 86.6094 23.5676 87.9115C22.8905 88.1771 22.1926 88.2501 21.479 88.1303C21.2395 88.1042 21.0259 88.0157 20.8436 87.8646C20.6613 87.7084 20.5363 87.5157 20.4686 87.2865C20.4061 87.0313 20.2499 86.8542 20.0051 86.7553C19.7238 86.6042 19.5155 86.3803 19.3801 86.0886C19.2447 85.7969 19.203 85.4949 19.2655 85.1824C19.3697 84.7709 19.328 84.3751 19.1405 83.9949C19.052 83.8126 18.9947 83.6199 18.9582 83.4219C18.8436 82.8334 18.5207 82.5938 17.9686 82.7917C17.2238 83.0469 16.4842 83.3438 15.7603 83.6771C14.7967 84.1042 13.8488 84.6042 12.8957 85.0678C12.4842 85.3021 12.052 85.3438 11.5988 85.1928C11.4842 85.1667 11.3749 85.1094 11.2863 85.0261C10.8176 84.4428 10.354 83.849 10.453 83.0417C10.5207 82.7292 10.4842 82.4219 10.3384 82.1355C10.1978 81.8438 9.97904 81.6303 9.68217 81.4896C9.37487 81.2709 9.16133 80.9844 9.04675 80.6251C8.88529 80.2813 8.69258 79.948 8.53633 79.599C8.44779 79.4011 8.37487 79.1928 8.32279 78.9844C8.28633 78.849 8.32279 78.6876 8.24987 78.5678C8.15092 78.4324 8.10925 78.2813 8.12487 78.1146C8.13529 77.948 8.203 77.8021 8.32279 77.6824C8.5155 77.4376 8.5155 77.1876 8.32279 76.9376C8.24467 76.7969 8.1405 76.6719 8.05196 76.5313C7.87487 76.3282 7.80196 76.0886 7.828 75.823C7.85925 75.5521 7.98425 75.3386 8.203 75.1771C8.5155 74.8074 8.55196 74.4115 8.32279 73.9844C8.21862 73.6563 8.078 73.3386 7.97383 73.0157C7.84883 72.6251 7.93217 72.2917 8.22904 72.0105C8.96862 71.1771 9.84362 70.5209 10.854 70.0417C12.2447 69.4011 13.6405 68.8178 15.0363 68.1876C15.7186 67.8803 16.4061 67.5574 17.0728 67.2136C17.6197 66.9271 17.7082 66.6824 17.479 66.1199C17.2811 65.7501 17.2811 65.3855 17.479 65.0209C17.6249 64.6615 17.6092 64.3074 17.427 63.9688C17.1301 63.099 16.6978 62.2553 16.802 61.2813C16.7967 60.9376 16.7603 60.599 16.6874 60.2605C16.6874 60.073 16.6092 59.7969 16.6874 59.6928C17.1301 59.1407 16.9061 58.6199 16.6613 58.099C16.578 57.9584 16.4842 57.823 16.3853 57.6928C16.229 57.5157 16.1561 57.3074 16.177 57.0678C16.1978 56.8282 16.2967 56.6355 16.4842 56.4844C16.9165 56.0574 17.4113 55.6876 17.8801 55.2865C18.0676 55.1251 18.3436 55.0105 18.1978 54.5574ZM57.8957 47.0678C57.8645 47.0105 57.8384 46.9949 57.8384 46.9844C57.8853 46.7709 57.9374 46.5469 57.9999 46.3334C58.9738 42.9688 59.6353 39.5469 59.979 36.0626C60.0207 35.698 59.9895 35.3386 59.8801 34.9896C59.7707 34.6407 59.5936 34.3282 59.354 34.0521C59.1092 33.7813 58.8228 33.5678 58.4895 33.4115C58.1509 33.2605 57.802 33.1824 57.4374 33.1771C56.1197 33.1511 54.9478 33.5521 53.927 34.3855C53.3124 34.8855 52.7342 35.4324 52.203 36.0261C51.854 36.4219 51.5624 36.8594 51.328 37.3386C51.1665 37.724 51.1353 38.1199 51.2342 38.5313C51.328 38.9376 51.5363 39.2813 51.8488 39.5574C52.1249 39.8074 52.4478 39.9011 52.8176 39.8386C53.5051 39.7917 54.0676 39.4949 54.4947 38.9584C54.5832 38.8126 54.7082 38.7136 54.8697 38.6615C55.0363 38.6146 55.1926 38.6251 55.3488 38.698C55.6665 38.8699 55.5363 39.1615 55.5051 39.4063C55.1978 41.8282 54.6874 44.2084 53.979 46.5417C53.6717 47.5938 53.3801 48.6511 53.0728 49.7032C52.9009 50.3021 53.0311 50.8334 53.453 51.2969C53.7759 51.7084 54.1874 52.0001 54.677 52.1771C55.1717 52.349 55.677 52.3803 56.1874 52.2657C56.9842 52.1251 57.6509 51.7605 58.1874 51.1615C59.1405 50.1615 60.0467 49.1199 60.979 48.099C61.1978 47.8594 61.3853 47.5938 61.6249 47.2969C61.7811 47.5469 61.9009 47.7292 62.0103 47.9167C62.4686 48.7188 63.0572 49.4167 63.7759 50.0001C64.6405 50.7396 65.6405 51.073 66.7759 50.9844C67.5467 50.9063 68.302 50.7761 69.052 50.5834C69.7968 50.3803 70.4374 49.9949 70.9738 49.4376C72.3645 48.0157 73.4738 46.4376 73.9165 44.4636C74.0103 44.0469 74.1301 43.6303 74.1874 43.2084C74.2447 42.9271 74.3749 42.6824 74.578 42.4792C75.0103 42.0209 75.4113 41.5365 75.7759 41.0209C76.7447 39.6094 77.5936 38.1303 78.3228 36.5782C78.4842 36.2084 78.6717 35.849 78.8697 35.4896C78.9842 35.3126 79.1092 35.1459 79.2447 34.9792C79.7499 35.3438 79.7811 35.4011 79.7082 35.8542C79.6717 36.0574 79.6249 36.2501 79.578 36.448C78.8436 39.3646 77.9113 42.2188 76.7863 45.0157C76.5624 45.5782 76.3905 46.1615 76.2082 46.7449C76.1405 46.9532 76.1405 47.1615 76.2082 47.3751C76.2759 47.5834 76.4009 47.7553 76.578 47.8855C76.7707 48.0626 76.9947 48.1928 77.2499 48.2761C77.4999 48.3542 77.7603 48.3699 78.0207 48.3334C78.2811 48.2917 78.5207 48.1928 78.7395 48.0417C78.9582 47.8907 79.1301 47.7032 79.2603 47.4688C79.3801 47.2605 79.4842 47.0417 79.5624 46.8126C79.8228 46.1042 80.0311 45.3751 80.3228 44.6876C81.2134 42.5521 82.1405 40.4271 83.0572 38.3021C83.1561 38.0782 83.2863 37.8699 83.4322 37.6771C83.6717 37.3542 83.9009 36.9532 84.3957 37.099C84.7395 37.198 84.9165 37.6251 84.8593 38.1876C84.7551 39.9896 84.354 41.724 83.6613 43.3907C83.4113 43.9949 83.2082 44.6094 83.0572 45.2449C82.9686 45.4792 82.979 45.7084 83.078 45.9376C83.177 46.1667 83.3436 46.3282 83.5728 46.4219C84.7499 47.0834 85.7968 47.0001 86.6822 45.9324C86.8749 45.6928 87.0259 45.4324 87.1509 45.1511C87.3697 44.698 87.5624 44.2344 87.7343 43.7605C88.5884 41.4949 89.6457 39.3334 90.9165 37.2709C91.1613 36.8751 91.4322 36.4896 91.7238 36.1199C91.8436 35.9636 92.0259 35.7657 92.229 35.9063C92.3905 36.0365 92.4738 36.2032 92.4895 36.4115C92.5051 36.6928 92.4843 36.9792 92.427 37.2553C92.2655 38.1824 92.052 39.1094 91.9165 40.0105C91.6926 41.3021 91.6718 42.599 91.854 43.8959C91.8905 44.2396 92.0155 44.5469 92.2238 44.8178C92.4374 45.0886 92.703 45.2865 93.0259 45.4063C93.328 45.5209 93.6353 45.599 93.9582 45.6407C94.9426 45.7292 95.8176 45.4636 96.5832 44.8438C97.5259 44.1563 98.3697 43.3646 99.1145 42.4636L99.4947 42.0365C99.5624 42.0678 99.5884 42.0782 99.5936 42.0886C99.6509 42.2188 99.7082 42.349 99.7707 42.474C100.057 43.2292 100.542 43.8334 101.219 44.2813C101.896 44.7344 102.641 44.9428 103.453 44.9219C104.411 44.9011 105.307 44.6615 106.146 44.2032C107.568 43.4792 108.885 42.5938 110.088 41.5417C110.234 41.4115 110.401 41.2917 110.578 41.1407C110.729 41.323 110.854 41.4792 110.984 41.6042C111.375 42.073 111.849 42.4376 112.406 42.6928C112.963 42.948 113.547 43.0678 114.156 43.0626C115.885 43.0574 117.385 42.474 118.661 41.3074C119.635 40.4011 120.489 39.3959 121.229 38.2917C121.375 38.0834 121.531 37.8803 121.719 37.6355C122.411 38.4792 123.036 39.2865 124.068 39.6146C125.094 39.9376 126.062 39.6146 127.005 39.2709C127.042 39.3751 127.062 39.4167 127.062 39.448C126.797 40.9063 126.521 42.3646 126.271 43.823C126.266 43.9688 126.213 44.0886 126.104 44.1928C126 44.2917 125.875 44.3438 125.729 44.3438C123.911 44.599 122.104 44.8855 120.292 45.1563C116.443 45.7396 112.594 46.2917 108.755 46.9167C103.766 47.7188 98.8072 48.6511 93.8749 49.698C86.3176 51.2813 78.8384 53.1667 71.427 55.349C62.3957 58.0001 53.4999 61.0521 44.7238 64.4324C43.4478 64.9324 42.1822 65.4324 40.9113 65.9219C40.6301 65.9949 40.453 66.1771 40.3957 66.4584C40.2759 67.0157 40.1197 67.5574 39.979 68.1042C39.9165 68.3021 39.8749 68.5001 39.8384 68.698C39.8072 69.0469 39.8905 69.3646 40.0832 69.6511C40.2811 69.9428 40.5415 70.1355 40.8749 70.2396C41.1665 70.3282 41.4061 70.2605 41.604 70.0313C41.7082 69.9115 41.7863 69.7657 41.8957 69.6407C42.3176 69.0001 42.8853 68.5261 43.5884 68.2136C47.828 66.4792 52.104 64.823 56.427 63.2917C68.0155 59.1928 79.7968 55.7449 91.7655 52.9376C97.3488 51.6251 102.948 50.4584 108.573 49.4428C111.276 48.9532 113.989 48.5001 116.708 48.0886C119.286 47.6876 121.87 47.3594 124.453 47.0105C125.026 46.9324 125.609 46.8907 126.234 46.823C126.281 47.224 126.302 47.5521 126.364 47.8594C126.427 48.3021 126.536 48.7344 126.687 49.1563C126.781 49.4011 126.917 49.6199 127.099 49.8074C127.281 50.0001 127.495 50.1407 127.734 50.2449C127.979 50.3438 128.234 50.3907 128.495 50.3855C128.76 50.3855 129.01 50.323 129.25 50.2136C129.411 50.1615 129.562 50.099 129.713 50.0261C131.083 49.2657 131.193 48.8438 130.932 47.6615C130.854 47.3438 130.797 47.0261 130.755 46.7032C130.729 46.2969 130.818 46.198 131.224 46.1251C132.005 45.9896 132.786 45.8542 133.568 45.7501C135.87 45.4324 138.167 45.0782 140.469 44.823C142.13 44.6459 143.807 44.6199 145.479 44.5469C146 44.5157 146.489 44.6199 146.948 44.8594C147.573 45.198 148.073 44.8594 148.12 44.1563C148.156 43.8907 148.135 43.6355 148.057 43.3803C147.974 43.1251 147.849 42.9011 147.667 42.7084C147.489 42.5105 147.276 42.3594 147.026 42.2605C146.781 42.1563 146.526 42.1146 146.26 42.1251C145.625 42.1407 144.995 42.1824 144.37 42.2605C142.443 42.4271 140.516 42.599 138.588 42.7865C136.354 43.0053 134.13 43.2501 131.901 43.4636C131.562 43.5001 131.224 43.5001 130.849 43.5261C130.849 43.3126 130.818 43.1615 130.818 43.0001C130.812 41.8959 130.969 40.8178 131.281 39.7553C132.271 36.2553 133.432 32.8126 134.771 29.4271C135.208 28.2709 135.583 27.0886 135.885 25.8907C135.948 25.7292 135.979 25.5678 135.979 25.3959C135.974 25.224 135.937 25.0574 135.87 24.9011C135.802 24.7449 135.703 24.6094 135.578 24.4896C135.453 24.3751 135.307 24.2865 135.146 24.224C134.76 24.0313 134.354 23.9115 133.927 23.8646C133.484 23.7865 133.073 23.8699 132.693 24.1042C132.312 24.3386 132.062 24.6719 131.932 25.099C131.542 26.323 131.094 27.5209 130.656 28.724C129.974 30.7657 129.026 32.6771 127.812 34.4636C127.667 34.6824 127.495 34.8855 127.297 35.0626C126.963 35.3803 126.573 35.474 126.13 35.3282C125.687 35.1876 125.427 34.8855 125.344 34.4271C125.26 33.9688 125.239 33.5053 125.281 33.0365C125.448 31.724 125.755 30.4428 126.213 29.198C126.552 28.1771 126.87 27.1511 127.177 26.1146C127.271 25.9167 127.271 25.7188 127.177 25.5157C127.083 25.3178 126.927 25.1928 126.713 25.1407C125.719 24.6355 124.984 24.849 124.5 25.8542C124.01 26.8542 123.568 27.8438 123.161 28.8594C121.828 32.1928 120.016 35.1876 117.302 37.5938C116.786 38.0938 116.203 38.4949 115.547 38.7865C115.26 38.9063 114.969 38.9324 114.667 38.8594C114.255 38.6928 113.864 38.4896 113.495 38.2449C113.708 38.0261 113.849 37.8855 113.984 37.7449C115.213 36.5001 116.463 35.2709 117.667 34.0001C119.062 32.573 120.161 30.948 120.953 29.1146C121.484 27.9949 121.75 26.8126 121.755 25.573C121.687 23.4271 119.953 22.1303 117.854 22.6563C116.745 22.9688 115.797 23.5417 115.01 24.3855C112.698 26.6303 111.167 29.3126 110.417 32.4428C110.094 33.9532 109.891 35.4792 109.823 37.0261C109.844 37.2865 109.75 37.4949 109.547 37.6615C108.364 38.5313 107.224 39.4219 106.01 40.2761C105.667 40.5001 105.297 40.6667 104.901 40.7709C104.661 40.8542 104.422 40.849 104.182 40.7553C103.943 40.6615 103.76 40.5001 103.641 40.2761C103.51 40.073 103.422 39.849 103.38 39.6094C103.286 38.8438 103.234 38.073 103.161 37.2917C103.12 36.7761 103.271 36.3334 103.625 35.9584C105.469 33.7553 107.151 31.4376 108.677 29.0053C110.516 26.1771 111.989 23.1771 113.094 19.9949C113.557 18.6511 113.745 17.2709 113.661 15.8594C113.646 15.1355 113.489 14.4428 113.198 13.7865C113.12 13.573 113.005 13.3803 112.854 13.2136C112.698 13.0417 112.516 12.9115 112.312 12.8178C112.104 12.7188 111.885 12.6667 111.656 12.6615C111.427 12.6511 111.208 12.6876 110.995 12.7709C110.177 13.0105 109.469 13.4324 108.859 14.0261C108.01 14.7917 107.255 15.6459 106.599 16.5834C103.812 20.4584 102.088 24.8021 100.885 29.3699C100.364 31.6094 99.9947 33.8751 99.7759 36.1615C99.7603 36.7136 99.6405 37.2396 99.4113 37.7449C98.6874 38.9063 97.8124 39.948 96.7915 40.8646C96.5415 41.0938 96.2447 41.2032 95.9009 41.1876C95.4634 41.1876 95.2395 41.0105 95.2134 40.5886C95.1822 40.2396 95.2082 39.9011 95.2759 39.5626C95.5728 38.2553 95.9582 36.9688 96.2082 35.6511C96.4113 34.6094 96.5415 33.5678 96.5936 32.5105C96.6665 32.0209 96.5728 31.5678 96.3072 31.1511C96.0415 30.7292 95.6718 30.4532 95.1978 30.3074C94.5936 30.073 94.0051 30.1094 93.4374 30.4271C91.9322 31.0834 90.6613 32.0469 89.6249 33.3126C89.5103 33.4636 89.4061 33.6146 89.3124 33.7761C89.0259 33.3126 88.8488 33.0053 88.6301 32.7188C88.3176 32.2761 87.9009 31.9792 87.3749 31.8334C86.8488 31.6876 86.3384 31.7292 85.8436 31.948C85.5415 32.0626 85.2499 32.2188 84.9582 32.3542C84.8332 32.4063 84.7134 32.4428 84.5311 32.5053C84.5311 32.2761 84.5311 32.1199 84.5311 31.9584C84.5103 31.4167 84.3436 30.9271 84.0311 30.4844C83.7186 30.0417 83.3072 29.7188 82.8072 29.5157C81.9113 29.1719 81.0467 29.2292 80.2082 29.698C79.3697 30.0938 78.7238 30.698 78.2603 31.5001C77.1353 33.5417 76.0103 35.5938 74.8905 37.6459C74.802 37.8178 74.7082 37.9896 74.5415 38.2969C74.4999 37.9063 74.479 37.6667 74.4478 37.4271C74.328 36.073 73.9322 34.8021 73.2603 33.6199C72.8488 32.9011 72.2342 32.4688 71.4217 32.3178C70.2447 32.0626 69.1092 32.2032 68.0259 32.7396C66.8697 33.3126 65.8332 34.0626 64.9217 34.9792C64.104 35.7553 63.4947 36.6615 63.0884 37.7084C62.4322 39.3594 61.9426 41.0574 61.6197 42.8074C61.5936 43.1146 61.4999 43.4011 61.3488 43.6719C60.4842 44.948 59.4217 46.0261 58.1561 46.9167C58.0832 46.9896 57.9947 47.0417 57.8957 47.0678ZM31.2551 53.9324C32.7707 54.6719 34.3697 55.1042 36.0572 55.2344C38.5415 55.4532 40.979 55.2084 43.3749 54.5001C45.6665 53.9167 47.6301 52.7761 49.2655 51.0782C50.1249 50.1928 50.7499 49.1667 51.1301 47.9949C51.5103 46.823 51.6092 45.6251 51.4322 44.4063C51.0884 41.7709 49.5259 40.0417 47.1353 38.9792C46.9426 38.8907 46.7395 38.8126 46.4842 38.698C46.6509 38.5626 46.7655 38.4792 46.8749 38.3959C47.8072 37.6355 48.7707 36.9167 49.6665 36.1199C51.4322 34.6407 52.7551 32.8386 53.6301 30.7136C54.2603 29.1876 54.4322 27.6146 54.1457 25.9896C54.0415 25.3542 53.8488 24.7449 53.5624 24.1667C53.2759 23.5886 52.9165 23.0626 52.4738 22.5938C52.0311 22.1251 51.5259 21.7292 50.9634 21.4115C50.4061 21.0886 49.8072 20.8594 49.177 20.7136C48.3072 20.5626 47.4322 20.5417 46.5572 20.6615C44.9582 20.7709 43.4843 21.2657 42.1457 22.1459C40.2395 23.3699 38.6301 24.9063 37.3124 26.7501C36.8488 27.4376 36.3853 28.1407 35.9218 28.823C35.8228 28.974 35.7186 29.1094 35.5676 29.323C35.4634 29.0209 35.3905 28.7917 35.3124 28.573C35.1718 28.1563 34.9478 27.7969 34.6301 27.4896C34.3124 27.1876 33.9374 26.9792 33.5155 26.8594C33.1718 26.7188 32.8228 26.6876 32.4582 26.7553C32.0988 26.8282 31.7863 26.9896 31.5207 27.2501C31.2811 27.4949 31.1353 27.7917 31.0832 28.1303C31.0259 28.4688 31.0676 28.7917 31.2134 29.1042C31.2655 29.2344 31.2968 29.3751 31.3072 29.5157C31.4113 31.2865 31.3436 33.0521 31.1145 34.8074C30.8853 36.4115 30.6093 38.0209 30.3332 39.6199C29.8124 42.6615 29.2134 45.6928 28.4113 48.6719C27.9165 50.5261 27.479 52.3803 27.0155 54.2344C26.9478 54.4896 26.9322 54.7501 26.9738 55.0105C27.0155 55.2709 27.1093 55.5105 27.2551 55.7344C27.3957 55.9532 27.5832 56.1355 27.802 56.2813C28.0259 56.4219 28.2707 56.5157 28.5311 56.5521C28.9061 56.6199 29.2603 56.5678 29.5988 56.3959C29.9322 56.224 30.1874 55.9688 30.3488 55.6251C30.677 55.0782 30.9374 54.5157 31.2551 53.9324Z" fill="#006633"></path><path d="M57.8961 47.0677C58.0002 47.0261 58.0992 46.974 58.1929 46.9167C59.4586 46.0313 60.5211 44.9532 61.3908 43.6719C61.5419 43.4063 61.6304 43.1198 61.6565 42.8177C61.9794 41.0677 62.469 39.3698 63.1252 37.7188C63.5263 36.6771 64.1304 35.7709 64.9429 35.0052C65.8544 34.0834 66.8908 33.3386 68.0523 32.7605C69.1356 32.2292 70.2658 32.0886 71.4481 32.3386C72.2711 32.4844 72.8908 32.9167 73.3075 33.6355C73.9742 34.823 74.37 36.0938 74.4898 37.4532C74.5158 37.6875 74.5471 37.9167 74.5888 38.3125C74.7554 38.0157 74.8492 37.849 74.9377 37.6719C76.0627 35.6198 77.1773 33.5625 78.3075 31.5209C78.7658 30.7188 79.4117 30.1146 80.2502 29.7136C81.0888 29.2552 81.9586 29.1927 82.8544 29.5365C83.3752 29.7292 83.7971 30.0469 84.1252 30.4948C84.4533 30.9427 84.6252 31.4427 84.6461 31.9948C84.6461 32.1511 84.6461 32.3177 84.6461 32.5469L85.0783 32.3959C85.3752 32.2605 85.6669 32.1042 85.9638 31.9896C86.4586 31.7709 86.9742 31.7292 87.5002 31.875C88.0211 32.0209 88.4429 32.3125 88.7554 32.7605C88.9794 33.0469 89.1513 33.3698 89.4325 33.8125C89.5471 33.6407 89.6304 33.4844 89.745 33.349C90.7815 32.0834 92.0523 31.1198 93.5575 30.4636C94.1252 30.1459 94.7138 30.1042 95.3179 30.3386C95.7919 30.4844 96.1617 30.7709 96.4221 31.1875C96.6877 31.6042 96.7867 32.0521 96.7138 32.5417C96.6617 33.599 96.5315 34.6459 96.3283 35.6875C96.0731 37 95.6929 38.2917 95.3961 39.5938C95.3336 39.9323 95.3127 40.2761 95.3388 40.6198C95.37 41.0521 95.5992 41.224 96.0263 41.224C96.37 41.2396 96.6669 41.1302 96.9169 40.9011C97.9377 39.9844 98.8127 38.9427 99.5367 37.7761C99.7658 37.2761 99.8856 36.7448 99.9013 36.198C100.099 33.9115 100.448 31.6511 100.943 29.4115C102.141 24.8386 103.87 20.5 106.656 16.625C107.318 15.6875 108.073 14.8334 108.927 14.0625C109.537 13.474 110.245 13.0521 111.058 12.8073C111.271 12.7292 111.495 12.6927 111.724 12.7032C111.948 12.7084 112.167 12.7605 112.375 12.8594C112.584 12.9532 112.761 13.0886 112.917 13.2552C113.068 13.4219 113.188 13.6146 113.266 13.8282C113.547 14.4844 113.703 15.1771 113.729 15.8959C113.813 17.3073 113.62 18.6875 113.162 20.0313C112.052 23.2136 110.578 26.2188 108.745 29.0469C107.219 31.4792 105.531 33.7969 103.688 36C103.339 36.375 103.183 36.8177 103.224 37.3334C103.297 38.099 103.354 38.8698 103.448 39.6511C103.49 39.8907 103.573 40.1146 103.709 40.323C103.828 40.5469 104.005 40.7084 104.245 40.8021C104.485 40.8959 104.724 40.9011 104.969 40.8177C105.365 40.7136 105.735 40.5469 106.073 40.323C107.271 39.4688 108.433 38.5782 109.615 37.7084C109.813 37.5417 109.906 37.3334 109.886 37.073C109.959 35.5261 110.162 33.9948 110.485 32.4844C111.235 29.3542 112.766 26.6719 115.078 24.4271C115.865 23.5886 116.808 23.0157 117.917 22.7032C120.021 22.1667 121.745 23.474 121.818 25.6198C121.813 26.8594 121.547 28.0365 121.021 29.1563C120.224 30.9896 119.13 32.6198 117.735 34.0469C116.526 35.3125 115.276 36.5469 114.047 37.7917L113.563 38.2917C113.933 38.5313 114.323 38.7396 114.735 38.9063C115.031 38.974 115.323 38.9532 115.61 38.8334C116.266 38.5417 116.849 38.1407 117.365 37.6355C120.078 35.2292 121.896 32.2344 123.229 28.9011C123.63 27.8855 124.084 26.875 124.558 25.8959C125.031 24.9115 125.792 24.6771 126.776 25.1823C126.99 25.2344 127.146 25.3646 127.24 25.5625C127.334 25.7657 127.334 25.9636 127.24 26.1615C126.933 27.1927 126.62 28.224 126.281 29.2448C125.813 30.4844 125.49 31.7605 125.323 33.073C125.271 33.5365 125.292 34 125.38 34.4636C125.464 34.9167 125.724 35.2188 126.167 35.3594C126.61 35.5052 127 35.4167 127.334 35.099C127.531 34.9167 127.703 34.7188 127.844 34.5C129.068 32.7032 130.016 30.7813 130.703 28.724C131.141 27.5209 131.589 26.323 131.979 25.1042C132.104 24.6771 132.36 24.3438 132.74 24.1094C133.12 23.875 133.531 23.7917 133.974 23.8698C134.401 23.9115 134.808 24.0365 135.193 24.2292C135.354 24.2865 135.5 24.375 135.625 24.4948C135.75 24.6094 135.849 24.75 135.917 24.9063C135.99 25.0625 136.026 25.224 136.026 25.3959C136.031 25.5677 136 25.7344 135.933 25.8959C135.63 27.0938 135.255 28.2761 134.813 29.4323C133.474 32.8177 132.308 36.2605 131.323 39.7605C131.011 40.823 130.86 41.9011 130.86 43.0052C130.86 43.1615 130.86 43.3177 130.886 43.5313C131.266 43.5313 131.604 43.5313 131.943 43.4688C134.177 43.2448 136.401 43.0052 138.63 42.7917C140.552 42.6042 142.485 42.4323 144.412 42.2605C145.042 42.2032 145.672 42.125 146.302 42.125C146.568 42.1146 146.823 42.1563 147.068 42.2605C147.318 42.3594 147.531 42.5105 147.709 42.7084C147.891 42.9011 148.016 43.125 148.099 43.3802C148.177 43.6355 148.198 43.8907 148.162 44.1563C148.104 44.8698 147.615 45.198 146.985 44.8646C146.526 44.6198 146.042 44.5157 145.521 44.5521C143.849 44.6198 142.172 44.6563 140.511 44.8282C138.188 45.073 135.906 45.4271 133.61 45.7552C132.823 45.8646 132.042 46 131.266 46.1355C130.865 46.2032 130.766 46.3073 130.797 46.7084C130.839 47.0313 130.896 47.349 130.974 47.6667C131.229 48.8542 131.13 49.2813 129.755 50.0365C129.604 50.1094 129.453 50.1719 129.292 50.224C129.052 50.3334 128.802 50.3907 128.537 50.3959C128.276 50.4011 128.021 50.3542 127.781 50.25C127.537 50.1511 127.323 50.0052 127.141 49.8177C126.959 49.625 126.823 49.4115 126.729 49.1615C126.578 48.7448 126.469 48.3125 126.406 47.8698C126.344 47.5573 126.323 47.2344 126.276 46.8334C125.651 46.8959 125.068 46.9427 124.495 47.0209C121.912 47.375 119.328 47.7032 116.75 48.0938C114.031 48.5105 111.318 48.9636 108.615 49.4532C102.979 50.4636 97.3752 51.625 91.8075 52.9427C79.8388 55.75 68.0575 59.2032 56.469 63.3021C52.1513 64.8334 47.87 66.474 43.6304 68.2188C42.9273 68.5313 42.3648 69.0105 41.9377 69.6459C41.844 69.7813 41.745 69.9115 41.6408 70.0365C41.4481 70.2709 41.2086 70.3386 40.9169 70.2448C40.5836 70.1407 40.3231 69.948 40.1252 69.6615C39.9325 69.3698 39.8492 69.0573 39.8804 68.7084C39.9117 68.5052 39.9586 68.3073 40.0211 68.1146C40.1617 67.5677 40.3179 67.0209 40.4377 66.4688C40.495 66.1823 40.6669 66.0052 40.9533 65.9323C42.219 65.4688 43.4898 64.9375 44.7658 64.4427C53.5419 61.0573 62.4325 58.0105 71.469 55.3542C78.8804 53.1875 86.3648 51.3073 93.9169 49.7032C98.8596 48.6667 103.818 47.7396 108.797 46.9219C112.636 46.2969 116.485 45.75 120.334 45.1667C122.146 44.8907 123.953 44.599 125.771 44.3438C125.917 44.349 126.042 44.2969 126.146 44.198C126.25 44.099 126.308 43.974 126.313 43.8334C126.563 42.3698 126.839 40.9167 127.104 39.4532C127.104 39.4167 127.073 39.3802 127.047 39.2813C126.115 39.625 125.13 39.9427 124.11 39.6198C123.084 39.3021 122.448 38.4844 121.761 37.6407C121.573 37.8855 121.417 38.1042 121.292 38.2969C120.552 39.4011 119.698 40.4063 118.729 41.3125C117.453 42.4792 115.948 43.0677 114.219 43.0677C113.604 43.0782 113.021 42.9532 112.469 42.698C111.912 42.448 111.443 42.0834 111.052 41.6146C110.917 41.4688 110.797 41.3073 110.641 41.1511C110.453 41.3021 110.302 41.4219 110.146 41.5521C108.948 42.6042 107.636 43.4896 106.209 44.2084C105.37 44.6667 104.474 44.9063 103.516 44.9271C102.703 44.948 101.964 44.7344 101.287 44.2865C100.61 43.8386 100.125 43.2396 99.8336 42.4844C99.7763 42.3542 99.719 42.2292 99.6565 42.099C99.6565 42.099 99.62 42.099 99.5627 42.0417C99.4325 42.1771 99.3023 42.323 99.1773 42.4688C98.4377 43.3698 97.5888 44.1615 96.6461 44.849C95.8804 45.474 95.0054 45.7448 94.0211 45.6511C93.7033 45.6094 93.3908 45.5313 93.094 45.4167C92.7658 45.2969 92.5002 45.099 92.2867 44.8282C92.0783 44.5521 91.9533 44.2448 91.9221 43.9011C91.7398 42.6042 91.7606 41.3073 91.9794 40.0157C92.1148 39.0886 92.3283 38.1615 92.4898 37.2657C92.5523 36.9844 92.5731 36.7032 92.5523 36.4167C92.5367 36.2136 92.4533 36.0469 92.2971 35.9115C92.0888 35.7709 91.9117 35.974 91.7919 36.1302C91.5002 36.4896 91.2294 36.8594 90.9742 37.2448C89.7033 39.3021 88.6461 41.4688 87.7971 43.7344C87.6252 44.2084 87.4273 44.6719 87.2086 45.125C87.0888 45.4011 86.9325 45.6615 86.745 45.9011C85.8544 46.974 84.8075 47.0521 83.6356 46.3959C83.4013 46.3021 83.2398 46.1407 83.1356 45.9115C83.0367 45.6823 83.0315 45.4532 83.12 45.2188C83.2711 44.5834 83.469 43.9636 83.7242 43.3646C84.4117 41.698 84.8127 39.9636 84.9221 38.1667C84.9638 37.599 84.7919 37.1719 84.4586 37.073C83.9481 36.9323 83.7294 37.3334 83.4898 37.6459C83.3388 37.8438 83.2138 38.0521 83.12 38.2761C82.1877 40.4011 81.2554 42.5313 80.3856 44.6615C80.094 45.3542 79.8856 46.0782 79.6252 46.7865C79.5419 47.0105 79.4377 47.2344 79.3179 47.4427C79.1877 47.6719 79.0158 47.8646 78.7971 48.0157C78.5836 48.1615 78.344 48.2605 78.0836 48.3021C77.8179 48.3386 77.5627 48.323 77.3075 48.2448C77.0575 48.1667 76.8336 48.0417 76.6408 47.8594C76.4586 47.7292 76.3336 47.5625 76.2658 47.349C76.1981 47.1407 76.1981 46.9323 76.2658 46.7188C76.4481 46.1407 76.6252 45.5521 76.8492 44.9844C77.9742 42.1927 78.9013 39.3386 79.6408 36.4219C79.6877 36.2292 79.7346 36.0261 79.7658 35.8282C79.8544 35.3646 79.8231 35.3125 79.3023 34.9584C79.1617 35.1146 79.0367 35.2813 78.9221 35.4636C78.719 35.8177 78.5367 36.1823 78.3752 36.5573C77.6513 38.1094 76.8023 39.5886 75.8336 41C75.469 41.5157 75.0679 42 74.6304 42.4532C74.4221 42.6563 74.2971 42.9011 74.245 43.1875C74.1825 43.6094 74.0627 44.0157 73.969 44.4375C73.4742 46.3802 72.495 48.0365 71.0263 49.4063C70.495 49.974 69.8544 50.3542 69.1096 50.5521C68.3596 50.7448 67.5992 50.8802 66.8283 50.9584C65.6929 51.0469 64.6929 50.7188 63.8336 49.9688C63.1148 49.3855 62.5211 48.6927 62.0627 47.8907C61.9533 47.7032 61.8283 47.5157 61.6825 47.2761C61.4377 47.573 61.2502 47.8282 61.0367 48.073C60.1044 49.099 59.1773 50.1355 58.245 51.1355C57.7033 51.7344 57.0367 52.1042 56.2398 52.2396C55.7294 52.3542 55.2242 52.323 54.7346 52.1511C54.2398 51.974 53.8283 51.6771 53.5054 51.2657C53.0836 50.8073 52.9586 50.2761 53.1304 49.6771C53.4325 48.6302 53.7346 47.5677 54.0315 46.5157C54.745 44.1823 55.2502 41.8021 55.5627 39.3802C55.594 39.1355 55.7294 38.8438 55.4013 38.6719C55.2502 38.599 55.0888 38.5886 54.9273 38.6407C54.7658 38.6875 54.6408 38.7865 54.5523 38.9375C54.12 39.474 53.5627 39.7657 52.87 39.8125C52.5002 39.8802 52.1825 39.7865 51.9065 39.5313C51.5888 39.2552 51.3856 38.9167 51.2867 38.5052C51.1929 38.099 51.2242 37.7032 51.3856 37.3125C51.6096 36.8334 51.9013 36.3959 52.2606 36C52.7919 35.4323 53.3648 34.9011 53.9742 34.4167C55.0002 33.5834 56.1669 33.1823 57.4846 33.2032C57.8544 33.2136 58.2033 33.2917 58.5367 33.448C58.8648 33.599 59.1565 33.8177 59.3961 34.0886C59.6356 34.3646 59.8127 34.6771 59.9221 35.0261C60.0315 35.375 60.0627 35.7292 60.0211 36.0938C59.6773 39.5782 59.0158 43.0052 58.0419 46.3698C57.9794 46.5834 57.9273 46.7969 57.8804 47.0105C57.8388 46.9792 57.8648 47.0105 57.8961 47.0677ZM71.1825 43.3021C70.6461 42.9688 70.245 42.5157 69.9742 41.948C69.4742 40.6302 69.5054 39.3646 70.4377 38.2396C70.5158 38.1407 70.5836 38.0469 70.6721 37.9532C70.8388 37.7761 70.8856 37.5677 70.8127 37.3386C70.7606 37.0677 70.6461 36.8282 70.4794 36.6094C70.3075 36.3959 70.0992 36.2292 69.8544 36.1146C69.6044 35.9948 69.344 35.9375 69.0679 35.9427C68.7971 35.948 68.5367 36.0105 68.2919 36.1355C67.8283 36.3907 67.4169 36.7188 67.0679 37.1146C65.7554 38.4792 64.9794 40.1042 64.7398 41.9792C64.5575 43.0469 64.6408 44.0886 64.9794 45.1094C65.4794 46.4375 66.4638 46.9636 67.8388 46.5521C69.4794 46.0521 70.3804 44.7917 71.1825 43.3021ZM104.198 30.4792H104.328C104.37 30.4375 104.412 30.3907 104.448 30.3438C107.235 26.6407 109.313 22.5782 110.688 18.1511C110.813 17.7657 110.906 17.375 110.979 16.974C111.005 16.724 111.005 16.474 110.979 16.224C110.485 16.0677 110.245 16.3698 110.011 16.6407C108.584 18.25 107.433 20.0365 106.563 22C105.672 24.0365 105.016 26.1407 104.589 28.3177C104.417 29.0521 104.302 29.7657 104.167 30.4792H104.198ZM116.953 27.0417C116.61 27.1667 116.354 27.3907 116.188 27.7136C115.11 29.2448 114.36 30.9219 113.927 32.7396C113.86 33.0886 113.818 33.4375 113.755 33.8542C115.011 33.0052 117.516 29.4896 117.828 28.2396C117.516 27.8334 117.24 27.448 116.953 27.0417Z" fill="white"></path><path d="M31.2551 53.9324C30.9478 54.5157 30.677 55.0886 30.3592 55.6303C30.1978 55.9688 29.9478 56.2292 29.6092 56.4011C29.2707 56.573 28.9165 56.6251 28.5467 56.5574C28.1457 56.4792 27.802 56.297 27.5207 56.0001C27.2342 55.7084 27.0624 55.3595 27.0051 54.9532C26.9738 54.7136 26.9895 54.474 27.0467 54.2345C27.5103 52.3803 27.953 50.5261 28.4426 48.672C29.2447 45.6876 29.8384 42.6459 30.3645 39.6199C30.6353 38.0157 30.9113 36.4115 31.1457 34.8074C31.3749 33.0522 31.4374 31.2865 31.3332 29.5157C31.328 29.3699 31.2967 29.2345 31.2395 29.1042C31.0988 28.7917 31.052 28.4688 31.1092 28.1303C31.1665 27.7917 31.3124 27.4949 31.5467 27.2501C31.8072 26.9949 32.1197 26.8334 32.4738 26.7605C32.828 26.6876 33.177 26.7188 33.5155 26.849C33.9374 26.9688 34.3072 27.1824 34.6197 27.4845C34.9374 27.7865 35.1613 28.1459 35.2967 28.5626C35.3801 28.7761 35.4478 29.0261 35.552 29.3126C35.7082 29.099 35.802 28.9532 35.9113 28.8126C36.3749 28.1199 36.8384 27.422 37.3072 26.7345C38.6197 24.8907 40.229 23.3542 42.1353 22.1303C43.4738 21.2449 44.9478 20.7501 46.552 20.6459C47.427 20.5261 48.2967 20.547 49.1665 20.7032C49.802 20.8438 50.4009 21.073 50.9634 21.3907C51.5259 21.7084 52.0311 22.1042 52.4738 22.5782C52.9217 23.047 53.2863 23.573 53.5728 24.1511C53.8592 24.7292 54.052 25.3386 54.1561 25.9792C54.4426 27.599 54.2655 29.172 53.6405 30.6928C52.7655 32.823 51.4478 34.6251 49.677 36.1042C48.7759 36.9063 47.8176 37.6251 46.8905 38.3803L46.4999 38.6876L47.1561 38.9584C49.5415 40.0209 51.1092 41.7397 51.4478 44.3855C51.6249 45.6095 51.5259 46.8022 51.1457 47.9792C50.7655 49.1511 50.1457 50.1772 49.2863 51.0626C47.6457 52.7657 45.6822 53.9063 43.3905 54.4845C40.9999 55.1928 38.5624 55.4376 36.0728 55.2188C34.3853 55.099 32.7759 54.672 31.2551 53.9324ZM34.6613 40.2449C35.5572 39.974 36.2967 39.7813 37.0311 39.5313C40.578 38.4011 43.604 36.3438 46.6249 34.2553C46.6926 34.2032 46.7551 34.1511 46.8124 34.0938C47.6926 33.3282 48.3749 32.4115 48.854 31.349C49.3332 30.2865 49.5728 29.172 49.5676 28.0105C49.5676 26.0313 47.5103 24.0209 45.1717 24.5938C44.2342 24.8386 43.3905 25.2657 42.6301 25.8647C41.6457 26.6251 40.7551 27.4845 39.9582 28.4324C38.3645 30.3647 36.8749 32.3751 35.4947 34.4636C35.3853 34.6355 35.3124 34.823 35.2863 35.0209C35.1197 36.2709 34.9686 37.5157 34.8228 38.7709C34.7603 39.224 34.7238 39.6615 34.6613 40.2345V40.2449ZM32.2395 50.3386C32.453 50.4584 32.6405 50.573 32.8384 50.6772C34.0207 51.2501 35.2759 51.5678 36.5936 51.6147C38.5728 51.724 40.4947 51.4324 42.3488 50.7397C43.2655 50.4428 44.0415 49.9376 44.6822 49.2188C45.3228 48.5001 45.7342 47.672 45.927 46.7345C46.0572 46.2657 46.0988 45.7917 46.0467 45.3126C45.9895 44.8282 45.8488 44.3751 45.6145 43.948C45.3801 43.5209 45.078 43.1563 44.6978 42.849C44.3228 42.5417 43.9009 42.3178 43.4322 42.1772C42.7811 41.974 42.1092 41.8751 41.4217 41.8803C38.9061 41.922 36.5467 42.5417 34.3332 43.7345C33.9842 43.9011 33.7811 44.172 33.7186 44.5574C33.4009 46.0157 33.0311 47.474 32.6717 48.9324C32.5415 49.3647 32.3853 49.8282 32.2395 50.3282V50.3386Z" fill="white"></path><path d="M71.1823 43.3021C70.4063 44.7969 69.5 46.0833 67.8281 46.5469C66.4635 46.9479 65.4688 46.4323 64.974 45.1041C64.6406 44.0833 64.5573 43.0416 64.7292 41.9791C64.9688 40.0989 65.7448 38.4791 67.0573 37.1094C67.4063 36.7083 67.8177 36.3854 68.2865 36.1302C68.5313 36.0052 68.7917 35.9375 69.0677 35.9323C69.3385 35.9323 69.599 35.9844 69.849 36.1041C70.099 36.2239 70.3073 36.3906 70.474 36.6041C70.6406 36.8229 70.7552 37.0625 70.8073 37.3333C70.8802 37.5677 70.8333 37.7708 70.6615 37.9479C70.5833 38.0416 70.5052 38.1406 70.4271 38.2344C69.5 39.3802 69.5 40.6458 69.9635 41.9427C70.2396 42.5104 70.6458 42.9635 71.1823 43.3021ZM104.198 30.4791C104.328 29.7656 104.448 29.0521 104.594 28.3385C105.016 26.1562 105.677 24.0521 106.573 22.0208C107.443 20.0521 108.594 18.2656 110.016 16.6614C110.26 16.3906 110.484 16.0833 110.99 16.2396C111.01 16.4896 111.01 16.7448 110.99 16.9948C110.917 17.3906 110.818 17.7812 110.698 18.1719C109.323 22.5937 107.245 26.6614 104.458 30.3646C104.422 30.4114 104.38 30.4583 104.333 30.5L104.198 30.4791ZM116.953 27.0416C117.24 27.4323 117.516 27.8125 117.823 28.2396C117.51 29.4896 115.005 32.9948 113.75 33.8541C113.813 33.4427 113.854 33.0885 113.922 32.7396C114.354 30.9219 115.104 29.2448 116.177 27.7135C116.349 27.3906 116.609 27.1666 116.953 27.0416ZM34.6458 40.2187C34.7135 39.651 34.75 39.2083 34.7969 38.776C34.9531 37.526 35.1042 36.276 35.2656 35.026C35.2969 34.8229 35.3698 34.6302 35.4948 34.4635C36.875 32.375 38.3594 30.3646 39.9583 28.4323C40.7552 27.4739 41.6458 26.6146 42.6302 25.8489C43.3906 25.2448 44.2344 24.8229 45.1719 24.5729C47.5 24 49.5729 26.0052 49.5677 27.9896C49.5781 29.1562 49.3385 30.276 48.8594 31.3385C48.3802 32.4062 47.6979 33.3229 46.8125 34.0885C46.7552 34.1458 46.6927 34.1979 46.625 34.25C43.6146 36.3437 40.5781 38.3958 37.0313 39.5312L34.6458 40.2187ZM32.224 50.3125C32.3698 49.8125 32.5208 49.3489 32.6354 48.875C32.9948 47.4219 33.3594 45.9687 33.6823 44.5C33.7396 44.1146 33.9427 43.8437 34.2969 43.6771C36.526 42.5 38.901 41.901 41.4219 41.8802C42.1146 41.8802 42.7969 41.9844 43.4583 42.1979C43.9219 42.3437 44.3438 42.5677 44.724 42.8698C45.099 43.1771 45.4063 43.5469 45.6354 43.9687C45.8698 44.3958 46.0156 44.8489 46.0677 45.3333C46.1198 45.8177 46.0833 46.2916 45.9479 46.7552C45.7604 47.6979 45.349 48.526 44.7083 49.2448C44.0677 49.9635 43.2917 50.4687 42.375 50.7604C40.5052 51.4479 38.5781 51.7291 36.5938 51.6146C35.276 51.5677 34.026 51.2604 32.8385 50.6875L32.224 50.3125ZM26.5938 90.6458V91.151H23.6458V98.5104H23.026V91.1666H20.0781V90.6614L26.5938 90.6458ZM34.0313 90.6458V98.5312H33.4323V94.8177H28.1667V98.5312H27.5573V90.6458H28.1667V94.276H33.4323V90.6458H34.0313ZM40.1615 90.6458V91.151H36.4896V94.3021H40.0833V94.8177H36.4896V98.0052H40.2656V98.5104H35.875V90.6302L40.1615 90.6458ZM45.3125 90.6458V98.0052H49.2188V98.5104H44.7083V90.6302L45.3125 90.6458ZM53.974 90.5573C55.1302 90.5364 56.1198 90.9271 56.9427 91.7344C57.3333 92.1041 57.6302 92.5416 57.8438 93.0364C58.0573 93.5312 58.1615 94.0521 58.1615 94.5885C58.1615 95.1302 58.0573 95.6458 57.8438 96.1458C57.6302 96.6406 57.3333 97.0729 56.9427 97.4479C56.5417 97.8229 56.0885 98.1146 55.5729 98.3177C55.0625 98.5208 54.5313 98.6198 53.9792 98.6198C53.4323 98.6198 52.901 98.5208 52.3854 98.3177C51.875 98.1146 51.4167 97.8229 51.0208 97.4479C50.6302 97.0729 50.3333 96.6406 50.1198 96.1406C49.9115 95.6458 49.8073 95.1302 49.8073 94.5885C49.8073 94.0521 49.9115 93.5364 50.1198 93.0364C50.3333 92.5416 50.6302 92.1094 51.0208 91.7344C51.8385 90.9271 52.8229 90.5364 53.974 90.5573ZM54 98.0677C54.4635 98.0677 54.9063 97.9791 55.3333 97.8021C55.7604 97.625 56.1406 97.375 56.4635 97.0469C56.7917 96.7187 57.0469 96.3437 57.2188 95.9166C57.3958 95.4948 57.4844 95.0469 57.4844 94.5885C57.4844 94.125 57.3958 93.6823 57.2188 93.2552C57.0469 92.8333 56.7917 92.4531 56.4635 92.1302C56.1406 91.8021 55.7604 91.5521 55.3333 91.375C54.9063 91.1979 54.4635 91.1094 54 91.1094C53.0208 91.0937 52.1875 91.4271 51.5 92.1146C51.1719 92.4427 50.9167 92.8229 50.7396 93.25C50.5625 93.6771 50.474 94.125 50.474 94.5833C50.474 95.0469 50.5625 95.4948 50.7396 95.9219C50.9167 96.3489 51.1719 96.7291 51.5 97.0521C52.1875 97.75 53.026 98.0833 54.0052 98.0625L54 98.0677ZM66.7448 90.6458V98.5312H66.2448L60.2448 91.651V98.5312H59.6354V90.6458H60.1458L66.1302 97.5208V90.6614L66.7448 90.6458ZM68.5469 90.6458H71.3073C72.7031 90.6458 73.776 91.0156 74.5052 91.7448C74.8594 92.1302 75.1302 92.5677 75.3177 93.0573C75.5104 93.5416 75.6042 94.0469 75.6042 94.5729C75.6042 95.0937 75.5104 95.5989 75.3177 96.0885C75.1302 96.5729 74.8594 97.0104 74.5052 97.3958C73.6354 98.2187 72.599 98.5885 71.4063 98.5104H68.5365V90.6302L68.5469 90.6458ZM69.1563 91.151V98.0052H71.3854C72.3646 98.0416 73.2135 97.7344 73.9375 97.0781C74.6615 96.4062 75 95.5781 74.9635 94.5989C74.9948 93.625 74.6615 92.8021 73.9583 92.125C73.224 91.4427 72.3594 91.125 71.3594 91.1666L69.1563 91.151ZM80.9479 90.5573C82.099 90.5364 83.0938 90.9271 83.9167 91.7344C84.3073 92.1094 84.6042 92.5416 84.8125 93.0364C85.026 93.5364 85.1302 94.0521 85.1302 94.5885C85.1302 95.1302 85.026 95.6458 84.8125 96.1406C84.6042 96.6406 84.3073 97.0729 83.9167 97.4479C83.5156 97.8229 83.0625 98.1146 82.5469 98.3177C82.0365 98.5208 81.5052 98.6198 80.9531 98.6198C80.4063 98.6198 79.875 98.5208 79.3594 98.3177C78.849 98.1146 78.3958 97.8229 77.9948 97.4479C77.6042 97.0729 77.3073 96.6406 77.0938 96.1406C76.8854 95.6458 76.7813 95.1302 76.7813 94.5885C76.7813 94.0521 76.8854 93.5364 77.0938 93.0364C77.3073 92.5416 77.6042 92.1094 77.9948 91.7344C78.8125 90.9271 79.7969 90.5364 80.9479 90.5573ZM80.9479 98.0677C81.9219 98.0885 82.7552 97.75 83.4375 97.0573C83.7656 96.7291 84.0156 96.3541 84.1875 95.9219C84.3646 95.4948 84.4531 95.0521 84.4531 94.5885C84.4531 94.1302 84.3646 93.6823 84.1875 93.2552C84.0156 92.8281 83.7656 92.4531 83.4375 92.1198C83.1042 91.7969 82.7188 91.5521 82.2865 91.375C81.8542 91.2031 81.4063 91.1146 80.9427 91.1146C80.474 91.1146 80.026 91.2031 79.5938 91.375C79.1615 91.5521 78.7813 91.7969 78.4427 92.1198C78.1146 92.4479 77.8646 92.8281 77.6875 93.2552C77.5104 93.6823 77.4219 94.1302 77.4219 94.5885C77.4219 95.0521 77.5104 95.5 77.6875 95.9271C77.8646 96.3541 78.1146 96.7291 78.4427 97.0573C79.1354 97.75 79.9688 98.0833 80.9479 98.0625V98.0677ZM93.6927 90.6458V98.5312H93.1875L87.1979 91.651V98.5312H86.5833V90.6458H87.099L93.0833 97.5208V90.6614L93.6927 90.6458ZM98.7136 90.6458H100.359C101.078 90.5937 101.729 90.776 102.318 91.1875C102.797 91.5729 103.016 92.0729 102.99 92.6823C102.99 93.0625 102.885 93.4062 102.677 93.7239C102.474 94.0416 102.198 94.2812 101.854 94.4375C103.073 94.7031 103.682 95.3646 103.682 96.4271C103.703 97.0573 103.464 97.5677 102.964 97.9531C102.385 98.375 101.74 98.5625 101.031 98.526H98.7031V90.6406L98.7136 90.6458ZM99.3229 91.151V94.2864H100.167C101.599 94.2864 102.318 93.7604 102.318 92.7187C102.318 91.6771 101.599 91.151 100.146 91.151H99.3229ZM99.3229 94.8021V98.0052H100.953C101.521 98.0416 102.031 97.8958 102.49 97.5677C102.854 97.2708 103.031 96.8854 103.016 96.4114C103.016 95.3385 102.24 94.8021 100.688 94.8021H99.3229ZM108.672 90.5416C109.823 90.5156 110.813 90.9062 111.635 91.7135C112.026 92.0885 112.328 92.5208 112.536 93.0208C112.75 93.5156 112.854 94.0312 112.854 94.5729C112.854 95.1094 112.75 95.6302 112.536 96.125C112.328 96.6198 112.026 97.0573 111.635 97.4323C111.234 97.8073 110.781 98.0989 110.271 98.2969C109.755 98.5 109.229 98.6041 108.677 98.6041C108.125 98.6041 107.594 98.5 107.083 98.2969C106.573 98.0989 106.115 97.8073 105.719 97.4323C105.328 97.0573 105.031 96.6198 104.818 96.125C104.609 95.6302 104.505 95.1094 104.505 94.5729C104.505 94.0312 104.609 93.5156 104.818 93.0208C105.031 92.526 105.328 92.0885 105.719 91.7135C106.542 90.9114 107.531 90.526 108.682 90.5573L108.672 90.5416ZM108.672 98.0469C109.646 98.0677 110.474 97.7344 111.161 97.0416C111.484 96.7135 111.74 96.3333 111.911 95.9062C112.089 95.4791 112.177 95.0312 112.177 94.5729C112.177 94.1094 112.089 93.6666 111.911 93.2396C111.74 92.8125 111.484 92.4323 111.161 92.1041C110.828 91.7812 110.443 91.5312 110.01 91.3594C109.578 91.1823 109.13 91.0989 108.667 91.0989C108.198 91.0989 107.75 91.1823 107.318 91.3594C106.885 91.5312 106.505 91.7812 106.167 92.1041C105.839 92.4323 105.583 92.8073 105.406 93.2344C105.229 93.6614 105.141 94.1094 105.141 94.5729C105.141 95.0364 105.229 95.4791 105.406 95.9062C105.583 96.3385 105.839 96.7135 106.167 97.0416C106.865 97.75 107.708 98.0885 108.703 98.0625L108.672 98.0469ZM114.318 90.6302H116.339C117.047 90.5781 117.698 90.7604 118.276 91.1771C118.75 91.5573 118.974 92.0521 118.948 92.6614C118.948 93.5885 118.448 94.2031 117.448 94.5729C117.896 94.8906 118.245 95.2916 118.505 95.776L120.292 98.4948H119.568L118.172 96.3437C117.891 95.8333 117.531 95.3854 117.099 94.9948C116.75 94.7916 116.375 94.7031 115.974 94.7291H114.911V98.4948H114.302V90.6146L114.318 90.6302ZM114.927 91.1354V94.2656H116.286C116.844 94.3021 117.349 94.1719 117.818 93.8646C118.193 93.5781 118.365 93.1979 118.344 92.7239C118.365 92.25 118.182 91.875 117.802 91.5937C117.333 91.2864 116.823 91.151 116.26 91.1875H114.974L114.927 91.1354ZM124.63 90.5573C125.781 90.5364 126.776 90.9271 127.599 91.7344C127.99 92.1094 128.286 92.5416 128.495 93.0364C128.708 93.5364 128.813 94.0521 128.813 94.5885C128.813 95.1302 128.708 95.6458 128.495 96.1406C128.286 96.6406 127.99 97.0729 127.599 97.4479C126.776 98.2552 125.781 98.6458 124.63 98.6198C123.479 98.6458 122.495 98.2552 121.677 97.4479C121.286 97.0729 120.99 96.6406 120.776 96.1406C120.568 95.6458 120.464 95.1302 120.464 94.5885C120.464 94.0521 120.568 93.5364 120.776 93.0364C120.99 92.5416 121.286 92.1094 121.677 91.7344C122.495 90.9271 123.479 90.5364 124.63 90.5573ZM124.656 98.0677C125.12 98.0677 125.563 97.9791 125.99 97.8021C126.417 97.625 126.797 97.375 127.12 97.0469C127.448 96.7187 127.703 96.3437 127.88 95.9166C128.057 95.4948 128.146 95.0469 128.146 94.5885C128.146 94.125 128.057 93.6823 127.88 93.2552C127.703 92.8333 127.448 92.4531 127.12 92.1302C126.797 91.8021 126.417 91.5521 125.99 91.375C125.563 91.1979 125.12 91.1094 124.656 91.1094C123.677 91.0937 122.844 91.4271 122.151 92.1146C121.823 92.4427 121.568 92.8229 121.391 93.25C121.214 93.6771 121.12 94.125 121.12 94.5833C121.12 95.0469 121.214 95.4948 121.391 95.9219C121.568 96.3489 121.823 96.7291 122.151 97.0521C122.844 97.7448 123.677 98.0833 124.656 98.0625V98.0677ZM136.12 90.6458H136.745V94.9375C136.807 95.9687 136.5 96.875 135.818 97.6562C135.167 98.3281 134.37 98.6458 133.438 98.6146C132.505 98.651 131.714 98.3437 131.052 97.6875C130.38 96.9531 130.068 96.0885 130.125 95.0937V90.6666H130.74V95.0729C130.688 95.9114 130.938 96.6458 131.484 97.276C131.745 97.5312 132.042 97.7291 132.375 97.8698C132.714 98.0052 133.063 98.0729 133.427 98.0729C133.792 98.0729 134.141 98.0052 134.474 97.8698C134.813 97.7291 135.109 97.5312 135.365 97.276C135.922 96.6198 136.172 95.8594 136.115 95V90.6771L136.12 90.6458ZM144.953 91.2135V91.9062C144.094 91.3906 143.167 91.125 142.161 91.1094C141.458 91.1198 140.818 91.3177 140.234 91.7135C139.651 92.1041 139.224 92.6198 138.953 93.2708C138.682 93.9166 138.609 94.5833 138.74 95.2708C138.87 95.9635 139.177 96.5573 139.667 97.0625C140.417 97.776 141.307 98.1041 142.339 98.0521C143.099 98.0729 143.818 97.9219 144.5 97.5885V95.4635H142.839V94.9583H145.115V97.9791C144.24 98.4114 143.307 98.6354 142.328 98.6458C141.141 98.6823 140.12 98.2916 139.255 97.4844C138.87 97.1041 138.568 96.6666 138.359 96.1666C138.146 95.6666 138.042 95.1458 138.042 94.6041C138.042 94.0625 138.146 93.5416 138.359 93.0416C138.568 92.5416 138.87 92.1041 139.255 91.7239C140.109 90.9219 141.12 90.5416 142.286 90.5781C143.229 90.5937 144.125 90.8125 144.969 91.2291L144.953 91.2135ZM153.146 90.6458V98.5312H152.557V94.8177H147.281V98.5312H146.667V90.6458H147.281V94.276H152.557V90.6458H153.146Z" fill="#006633"></path></svg>