<svg xmlns="http://www.w3.org/2000/svg" width="181" height="100" viewBox="0 0 181 100" fill="none"><path d="M23 6H159.465V55.1923H23V6Z" fill="#7C1D83"></path><path d="M55.2762 31.1669C53.779 32.0448 52.2622 32.6915 50.2673 32.6915C45.6973 32.6915 42.7891 29.3483 42.7891 25.421C42.7891 21.4115 45.8227 18.1349 50.3731 18.1349C52.4073 18.1349 53.9907 18.8443 55.2135 19.5968L54.1984 22.3953C53.0108 21.6427 51.8468 21.0784 50.5612 21.0784C47.9823 21.0784 46.3008 22.9165 46.3008 25.3818C46.3008 27.804 47.9823 29.6618 50.5377 29.6618C51.8272 29.6618 52.8658 29.1601 54.1318 28.4507L55.2762 31.1669Z" fill="white"></path><path d="M62.0357 21.0381H60.5189V24.3343H62.118C62.9293 24.3343 63.7798 23.668 63.7798 22.7078C63.7798 21.7475 63.0939 21.0381 62.0357 21.0381ZM65.0889 32.5023C63.9052 30.3741 62.9685 27.0936 61.3302 27.0936H60.5189V32.5023H57.2148V18.3024H62.7412C65.4025 18.3024 67.1858 20.3248 67.1858 22.6882C67.1858 24.1697 66.398 25.4631 65.132 26.1764C65.7552 26.7173 66.0844 27.1563 66.6057 28.1557C66.7938 28.5359 68.4753 31.9183 68.7888 32.5023H65.0889Z" fill="white"></path><path d="M76.0741 21.1215C73.746 21.1215 72.2919 22.9165 72.2919 25.3818C72.2919 27.8471 73.746 29.6814 76.0741 29.6814C78.3395 29.6814 79.7701 27.8471 79.7701 25.3818C79.7701 22.9165 78.3356 21.1215 76.0741 21.1215ZM76.0741 32.6915C71.5433 32.6915 68.8232 29.1014 68.8232 25.3818C68.8232 21.7682 71.4806 18.1349 76.0741 18.1349C80.601 18.1349 83.2819 21.7878 83.2819 25.3818C83.2819 29.1014 80.4991 32.6915 76.0741 32.6915Z" fill="white"></path><path d="M82.6084 18.3024H86.4925L89.338 23.229L92.207 18.3024H96.0519L90.9998 26.4038V32.5023H87.6801V26.4038L82.6084 18.3024Z" fill="white"></path><path d="M100.65 29.747H102.272C105.075 29.747 106.447 27.7207 106.447 25.4435C106.447 22.939 105.016 21.0381 102.249 21.0381H100.65V29.747ZM102.523 18.3024C106.925 18.3024 109.919 21.3281 109.919 25.4435C109.919 29.5981 106.925 32.5023 102.355 32.5023H97.3496V18.3024H102.523Z" fill="white"></path><path d="M118.623 21.1216C116.295 21.1216 114.841 22.9167 114.841 25.382C114.841 27.8473 116.295 29.6815 118.623 29.6815C120.884 29.6815 122.319 27.8473 122.319 25.382C122.319 22.9167 120.884 21.1216 118.623 21.1216ZM118.623 32.6916C114.092 32.6916 111.372 29.1015 111.372 25.382C111.372 21.7683 114.029 18.135 118.623 18.135C123.15 18.135 125.831 21.7879 125.831 25.382C125.831 29.1015 123.044 32.6916 118.623 32.6916Z" fill="white"></path><path d="M140.179 18.3027V32.5027H137.439L131.204 23.688H131.102C131.121 24.4405 131.184 25.2126 131.184 25.922V32.5027H127.88V18.3027H130.851L136.816 26.6981H136.938C136.918 25.922 136.879 25.1107 136.879 24.2759V18.3027H140.179Z" fill="white"></path><path d="M50.3343 38.4315L48.4765 43.5973H47.6887L46.6619 40.7949C46.556 40.4696 46.5129 40.3089 46.5129 40.3089H46.4698C46.4698 40.3089 46.4384 40.4696 46.3209 40.7949L45.3057 43.5973H44.5258L42.6602 38.4315H43.9144L44.8276 41.2613C44.9256 41.5553 44.9491 41.6846 44.9491 41.6846H45.004C45.004 41.6846 45.0236 41.5553 45.1215 41.2496L46.1053 38.4315H46.8931L47.8769 41.2496C47.9631 41.5553 47.9944 41.6846 47.9944 41.6846H48.0493C48.0493 41.6846 48.0807 41.5553 48.1551 41.2613L49.084 38.4315H50.3343Z" fill="white"></path><path d="M58.1429 38.432L56.2851 43.5978H55.4973L54.4705 40.7954C54.3646 40.4701 54.3215 40.3094 54.3215 40.3094H54.2784C54.2784 40.3094 54.2471 40.4701 54.1256 40.7954L53.1104 43.5978H52.3344L50.4648 38.432H51.719L52.6362 41.2618C52.7342 41.5558 52.7577 41.6851 52.7577 41.6851H52.8086C52.8086 41.6851 52.8322 41.5558 52.9262 41.25L53.91 38.432H54.7017L55.6816 41.25C55.7678 41.5558 55.7991 41.6851 55.7991 41.6851H55.854C55.854 41.6851 55.8854 41.5558 55.9598 41.2618L56.8887 38.432H58.1429Z" fill="white"></path><path d="M65.9564 38.432L64.0986 43.5978H63.3108L62.2839 40.7954C62.1742 40.4701 62.1311 40.3094 62.1311 40.3094H62.088C62.088 40.3094 62.0566 40.4701 61.939 40.7954L60.9239 43.5978H60.144L58.2783 38.432H59.5286L60.4457 41.2618C60.5437 41.5558 60.5672 41.6851 60.5672 41.6851H60.6182C60.6182 41.6851 60.6417 41.5558 60.7397 41.25L61.7195 38.432H62.5073L63.4911 41.25C63.5773 41.5558 63.6087 41.6851 63.6087 41.6851H63.6636C63.6636 41.6851 63.6949 41.5558 63.7733 41.2618L64.6983 38.432H65.9564Z" fill="white"></path><path d="M67.7326 42.9379C67.7326 43.3611 67.3955 43.6982 66.9762 43.6982C66.5568 43.6982 66.2197 43.3611 66.2197 42.9379C66.2197 42.5146 66.5568 42.1775 66.9762 42.1775C67.3955 42.1775 67.7326 42.5146 67.7326 42.9379Z" fill="white"></path><path d="M73.1589 43.3473C72.6964 43.5432 72.1438 43.6961 71.5167 43.6961C69.9842 43.6961 68.8633 42.5673 68.8633 41.027C68.8633 39.4514 69.9725 38.3344 71.4854 38.3344C72.1007 38.3344 72.6181 38.4872 73.1276 38.7028L72.7709 39.6983C72.3476 39.4827 71.9831 39.3652 71.6265 39.3652C70.7054 39.3652 70.1684 40.0706 70.1684 41.0035C70.1684 41.948 70.7172 42.6535 71.6461 42.6535C71.991 42.6535 72.328 42.5673 72.7905 42.3792L73.1589 43.3473Z" fill="white"></path><path d="M76.5041 39.4642C75.9319 39.4642 75.5634 39.8875 75.3792 40.397V43.5991H74.1172V38.4334H75.3792V39.2995H75.391C75.779 38.6685 76.2572 38.3119 76.7628 38.3315C77.045 38.3432 77.3468 38.453 77.7583 38.7156L77.3233 39.8091C76.9783 39.5817 76.6961 39.4642 76.5041 39.4642Z" fill="white"></path><path d="M79.2261 40.9917C79.2261 42.046 79.7552 42.7201 80.5234 42.7201C81.3426 42.7201 81.8286 42.0029 81.8286 40.9917C81.8286 40.051 81.3426 39.3103 80.5234 39.3103C79.7317 39.3103 79.2261 40.0158 79.2261 40.9917ZM83.1572 41.0035C83.1572 42.5986 81.9462 43.6961 80.5234 43.6961C78.9792 43.6961 77.9092 42.4811 77.9092 40.9917C77.9092 39.5062 79.0419 38.3344 80.5234 38.3344C81.9579 38.3344 83.1572 39.4514 83.1572 41.0035Z" fill="white"></path><path d="M89.1721 38.4327L86.699 44.3902C86.2561 45.4524 85.4017 45.8992 84.5472 45.8992C84.4649 45.8992 84.3552 45.8874 84.2572 45.8874V44.692C84.3552 44.7155 84.4532 44.7155 84.5394 44.7155C84.9823 44.7155 85.3389 44.4882 85.5545 43.9748L85.7035 43.575L83.5674 38.4327H84.8961C84.8961 38.4327 86.0405 41.2508 86.3227 42.0778H86.405C86.699 41.2508 87.8434 38.4327 87.8434 38.4327H89.1721Z" fill="white"></path><path d="M93.0526 42.2738V39.7223C92.8096 39.5068 92.4803 39.3225 92.1589 39.3225C91.4142 39.3225 90.8969 40.0829 90.8969 41.004C90.8969 41.8623 91.2536 42.7207 92.1707 42.7207C92.496 42.7207 92.8174 42.5364 93.0526 42.2738ZM94.3068 36.2184V43.5986H93.0526V43.2184C92.7194 43.481 92.3196 43.6966 91.8807 43.6966C90.5167 43.6966 89.6113 42.5443 89.6113 40.9922C89.6113 39.5068 90.5598 38.3349 91.9434 38.3349C92.3431 38.3349 92.7312 38.4956 93.0526 38.715V36.2184H94.3068Z" fill="white"></path><path d="M96.7115 40.9917C96.7115 42.046 97.2406 42.7201 98.0049 42.7201C98.8279 42.7201 99.31 42.0029 99.31 40.9917C99.31 40.051 98.8279 39.3103 98.0049 39.3103C97.2171 39.3103 96.7115 40.0158 96.7115 40.9917ZM100.639 41.0035C100.639 42.5986 99.4315 43.6961 98.0049 43.6961C96.4606 43.6961 95.3906 42.4811 95.3906 40.9917C95.3906 39.5062 96.5272 38.3344 98.0049 38.3344C99.4433 38.3344 100.639 39.4514 100.639 41.0035Z" fill="white"></path><path d="M104.851 40.4155C104.851 39.8002 104.624 39.3416 104.063 39.3416C103.664 39.3416 103.338 39.5611 102.993 40.0275V43.5981H101.731V38.4323H102.993L103.001 39.0085C103.35 38.5734 103.836 38.3344 104.342 38.3344C105.314 38.3344 106.113 39.0516 106.113 40.3097V43.5981H104.851V40.4155Z" fill="white"></path><path d="M109.124 42.9379C109.124 43.3611 108.791 43.6982 108.372 43.6982C107.948 43.6982 107.615 43.3611 107.615 42.9379C107.615 42.5146 107.948 42.1775 108.372 42.1775C108.791 42.1775 109.124 42.5146 109.124 42.9379Z" fill="white"></path><path d="M113.658 42.2727V39.7212C113.419 39.5056 113.086 39.3214 112.772 39.3214C112.028 39.3214 111.51 40.0818 111.51 41.0028C111.51 41.8612 111.855 42.7156 112.772 42.7156C113.109 42.7195 113.419 42.5314 113.658 42.2727ZM111.056 44.4637C111.491 44.738 111.973 44.8791 112.384 44.8791C113.29 44.8791 113.658 44.401 113.658 43.7268V43.2055C113.337 43.4799 112.937 43.6955 112.482 43.6955C111.134 43.6955 110.225 42.5432 110.225 40.9911C110.225 39.5056 111.165 38.3337 112.557 38.3337C112.968 38.3337 113.356 38.5062 113.67 38.7335V38.4317H114.912V43.6092C114.912 45.0202 114.003 45.8982 112.451 45.8982C111.694 45.8982 111.067 45.6473 110.57 45.3455L111.056 44.4637Z" fill="white"></path><path d="M117.294 40.9917C117.294 42.046 117.82 42.7201 118.588 42.7201C119.407 42.7201 119.893 42.0029 119.893 40.9917C119.893 40.051 119.407 39.3103 118.588 39.3103C117.8 39.3103 117.294 40.0158 117.294 40.9917ZM121.222 41.0035C121.222 42.5986 120.015 43.6961 118.588 43.6961C117.044 43.6961 115.974 42.4811 115.974 40.9917C115.974 39.5062 117.106 38.3344 118.588 38.3344C120.026 38.3344 121.222 39.4514 121.222 41.0035Z" fill="white"></path><path d="M126.643 38.432L124.476 43.5978H123.641L121.485 38.432H122.802L123.892 41.3598C124.009 41.6969 124.041 41.8497 124.041 41.8497H124.084C124.084 41.8497 124.127 41.6969 124.249 41.3598L125.315 38.432H126.643Z" fill="white"></path><path d="M128.42 42.9379C128.42 43.3611 128.087 43.6982 127.668 43.6982C127.244 43.6982 126.911 43.3611 126.911 42.9379C126.911 42.5146 127.244 42.1775 127.668 42.1775C128.087 42.1775 128.42 42.5146 128.42 42.9379Z" fill="white"></path><path d="M131.041 41.6127C131.041 42.2202 131.288 42.6866 131.841 42.6866C132.229 42.6866 132.55 42.4711 132.907 42.0125V38.4302H134.173V43.5959H132.907V43.0355C132.55 43.4666 132.068 43.6978 131.547 43.6978C130.575 43.6978 129.775 42.9806 129.775 41.7107V38.4302H131.041V41.6127Z" fill="white"></path><path d="M140.294 38.4328L138.048 40.5689L140.349 43.5986H138.793L136.841 40.9295L136.806 40.9373V43.5986H135.544V36.2184H136.806V40.177H136.818L138.546 38.4328H140.294Z" fill="white"></path><path d="M145.841 61.9926H46.751V90.0045H145.841C153.598 90.0045 159.888 83.7334 159.888 75.9965C159.888 68.2636 153.598 61.9926 145.841 61.9926ZM145.841 64.4814C152.21 64.4814 157.392 69.6471 157.392 75.9965C157.392 82.3499 152.21 87.5156 145.841 87.5156H49.2476V64.4814H145.841Z" fill="#7C1D83"></path><path d="M74.568 76.7918L73.8978 74.5186C73.7057 73.8837 73.5176 73.0919 73.3569 72.457H73.3255C73.1648 73.0919 73.0081 73.8993 72.8317 74.5186L72.1928 76.7918H74.568ZM71.844 78.6026L71.0797 81.3462H68.5635L71.844 70.6462H75.0305L78.358 81.3462H75.7477L74.9168 78.6026H71.844Z" fill="#7C1D83"></path><path d="M82.2083 75.6485C82.416 75.6955 82.6708 75.7112 83.0196 75.7112C84.3091 75.7112 85.1047 75.0606 85.1047 73.9671C85.1047 72.9794 84.4227 72.3915 83.2116 72.3915C82.7178 72.3915 82.3846 72.4425 82.2083 72.4895V75.6485ZM79.8018 70.7885C80.5504 70.663 81.6008 70.5651 83.0823 70.5651C84.5795 70.5651 85.6495 70.8512 86.3667 71.4234C87.0487 71.9643 87.5112 72.854 87.5112 73.9005C87.5112 74.9509 87.1624 75.8406 86.5235 76.4442C85.6965 77.2202 84.4698 77.569 83.0353 77.569C82.7178 77.569 82.4317 77.5533 82.2083 77.522V81.3473H79.8018V70.7885Z" fill="#7C1D83"></path><path d="M91.4495 75.6485C91.6572 75.6955 91.912 75.7112 92.2647 75.7112C93.5542 75.7112 94.3498 75.0606 94.3498 73.9671C94.3498 72.9794 93.6639 72.3915 92.4528 72.3915C91.959 72.3915 91.6258 72.4425 91.4495 72.4895V75.6485ZM89.0469 70.7885C89.7955 70.663 90.8459 70.5651 92.3274 70.5651C93.8246 70.5651 94.8907 70.8512 95.6079 71.4234C96.2938 71.9643 96.7563 72.854 96.7563 73.9005C96.7563 74.9509 96.4036 75.8406 95.7686 76.4442C94.9377 77.2202 93.711 77.569 92.2804 77.569C91.959 77.569 91.6729 77.5533 91.4495 77.522V81.3473H89.0469V70.7885Z" fill="#7C1D83"></path><path d="M100.723 75.3938H101.679C102.886 75.3938 103.604 74.7902 103.604 73.8534C103.604 72.8697 102.937 72.3758 101.82 72.3601C101.232 72.3601 100.895 72.4072 100.723 72.4425V75.3938ZM98.3164 70.7885C99.0964 70.663 100.26 70.5651 101.55 70.5651C103.145 70.5651 104.258 70.8041 105.022 71.4077C105.661 71.9173 106.01 72.6619 106.01 73.6457C106.01 75.0136 105.038 75.9503 104.113 76.2835V76.3305C104.862 76.6323 105.277 77.3456 105.548 78.3333C105.885 79.5405 106.218 80.9358 106.426 81.3473H103.941C103.764 81.0494 103.51 80.1754 103.192 78.8546C102.906 77.522 102.444 77.1575 101.456 77.1418H100.723V81.3473H98.3164V70.7885Z" fill="#7C1D83"></path><path d="M109.752 76.0277C109.752 78.1245 110.739 79.6022 112.366 79.6022C114.004 79.6022 114.945 78.0462 114.945 75.965C114.945 74.0445 114.02 72.3905 112.35 72.3905C110.708 72.3905 109.752 73.9504 109.752 76.0277ZM117.512 75.8866C117.512 79.3944 115.376 81.5227 112.237 81.5227C109.05 81.5227 107.188 79.124 107.188 76.0747C107.188 72.8686 109.242 70.47 112.413 70.47C115.709 70.47 117.512 72.9314 117.512 75.8866Z" fill="#7C1D83"></path><path d="M121.532 81.3462L118.091 70.6462H120.752L122.057 75.1692C122.422 76.443 122.759 77.6659 123.014 78.9985H123.061C123.331 77.7129 123.668 76.443 124.033 75.2202L125.404 70.6462H127.983L124.366 81.3462H121.532Z" fill="#7C1D83"></path><path d="M135.525 76.8232H131.571V79.363H135.984V81.3462H129.137V70.6462H135.764V72.6295H131.571V74.8517H135.525V76.8232Z" fill="#7C1D83"></path><path d="M140.073 79.5248C140.28 79.5718 140.614 79.5718 140.915 79.5718C143.114 79.5875 144.549 78.3803 144.549 75.8249C144.564 73.5987 143.259 72.4229 141.17 72.4229C140.629 72.4229 140.28 72.4738 140.073 72.5208V79.5248ZM137.635 70.7885C138.528 70.6474 139.692 70.5651 140.915 70.5651C142.957 70.5651 144.278 70.9335 145.313 71.7095C146.43 72.5365 147.128 73.8534 147.128 75.7426C147.128 77.7924 146.379 79.2073 145.344 80.0774C144.215 81.0142 142.495 81.461 140.39 81.461C139.132 81.461 138.242 81.3826 137.635 81.3042V70.7885Z" fill="#7C1D83"></path><path d="M59.7738 75.9962C59.7738 86.0455 51.6018 94.19 41.5212 94.19C31.4405 94.19 23.2686 86.0455 23.2686 75.9962C23.2686 65.9469 31.4405 57.8024 41.5212 57.8024C51.6018 57.8024 59.7738 65.9469 59.7738 75.9962Z" fill="#7C1D83"></path><path d="M39.5452 85.3675L31.0322 76.8821L34.2422 73.6838L39.5452 78.9672L50.3196 68.2241L53.5295 71.4263L39.5452 85.3675Z" fill="#FEFFFD"></path></svg>