<svg width="759" height="95" viewBox="0 0 759 95" fill="none" xmlns="http://www.w3.org/2000/svg">
<path d="M38.1 94.4002C31.4 94.4002 25.3 93.2002 19.9 90.8002C14.5 88.4002 10.1 85.0002 6.6 80.6002C3.1 76.2002 0.9 70.9002 0 64.8002L17.9 62.2002C19.2 67.4002 21.8 71.4002 25.7 74.2002C29.6 77.0002 34.1 78.4002 39.2 78.4002C42 78.4002 44.7 78.0002 47.4 77.1002C50.1 76.2002 52.2 74.9002 53.9 73.2002C55.6 71.5002 56.4 69.4002 56.4 66.8002C56.4 65.9002 56.3 65.0002 56 64.1002C55.7 63.2002 55.3 62.4002 54.6 61.7002C54 60.9002 53.1 60.2002 51.9 59.6002C50.7 58.9002 49.3 58.3002 47.5 57.8002L24.1 50.9002C22.3 50.4002 20.3 49.7002 18 48.8002C15.7 47.9002 13.4 46.6002 11.2 44.8002C9 43.1002 7.2 40.8002 5.8 38.0002C4.4 35.2002 3.6 31.6002 3.6 27.3002C3.6 21.2002 5.1 16.2002 8.2 12.1002C11.3 8.1002 15.4 5.10019 20.5 3.10019C25.6 1.10019 31.3 0.200195 37.5 0.200195C43.8 0.300195 49.3 1.40019 54.2 3.40019C59.1 5.50019 63.2 8.40019 66.5 12.4002C69.8 16.3002 72.2 21.1002 73.7 26.8002L55.2 29.9002C54.5 27.0002 53.3 24.5002 51.5 22.5002C49.7 20.5002 47.5 19.0002 45 17.9002C42.5 16.9002 39.9 16.3002 37.2 16.2002C34.5 16.1002 32 16.5002 29.6 17.3002C27.2 18.1002 25.3 19.3002 23.8 20.9002C22.3 22.5002 21.6 24.3002 21.6 26.4002C21.6 28.4002 22.2 30.0002 23.4 31.2002C24.6 32.4002 26.1 33.4002 28 34.2002C29.9 35.0002 31.7 35.6002 33.7 36.1002L49.4 40.4002C51.8 41.0002 54.4 41.9002 57.2 42.9002C60.1 43.9002 62.8 45.4002 65.4 47.2002C68 49.0002 70.2 51.4002 71.9 54.4002C73.6 57.4002 74.5 61.2002 74.5 65.7002C74.5 70.6002 73.5 74.8002 71.4 78.4002C69.4 82.0002 66.6 85.0002 63.2 87.4002C59.8 89.8002 55.9 91.5002 51.5 92.7002C47.2 93.8002 42.7 94.4002 38.1 94.4002Z" fill="#212135"/>
<path d="M292.801 51.3008C296.601 45.9008 298.501 39.4008 298.501 31.8008C298.501 26.7008 297.701 22.1008 296.001 18.0008C294.401 13.9008 291.801 10.4008 288.401 7.70079C284.901 5.00079 280.501 3.20078 275.101 2.30078C273.901 2.10078 272.601 2.00079 271.101 1.90079C269.601 1.80079 268.401 1.80078 267.501 1.80078H229.201V92.5008H246.301V61.8008H265.401L280.301 92.5008H299.801L283.401 58.9008C287.401 57.2008 290.501 54.7008 292.801 51.3008ZM246.401 17.9008H266.801C267.701 17.9008 268.601 17.9008 269.701 18.0008C270.701 18.1008 271.701 18.3008 272.601 18.5008C274.901 19.1008 276.701 20.2008 278.001 21.7008C279.301 23.2008 280.101 24.8008 280.601 26.7008C281.101 28.5008 281.301 30.3008 281.301 31.9008C281.301 33.5008 281.101 35.3008 280.601 37.1008C280.101 38.9008 279.201 40.6008 278.001 42.1008C276.701 43.6008 275.001 44.6008 272.601 45.3008C271.701 45.6008 270.801 45.7008 269.701 45.8008C268.701 45.9008 267.701 45.9008 266.801 45.9008H246.401V17.9008Z" fill="#85C7FF"/>
<path d="M370.701 5.89999C364.101 1.99999 356.301 0 347.201 0C338.101 0 330.301 1.99999 323.701 5.89999C317.101 9.79999 312.101 15.4 308.501 22.5C305.001 29.6 303.201 37.8 303.201 47.2C303.201 56.6 305.001 64.8 308.501 71.9C312.001 79 317.101 84.5 323.701 88.5C330.301 92.4 338.101 94.4 347.201 94.4C356.301 94.4 364.101 92.4 370.701 88.5C377.301 84.6 382.301 79 385.901 71.9C389.501 64.8 391.201 56.6 391.201 47.2C391.201 37.8 389.401 29.6 385.901 22.5C382.401 15.4 377.301 9.89999 370.701 5.89999ZM370.201 63.7C368.301 68.4 365.401 72 361.601 74.6C357.801 77.2 353.001 78.4 347.201 78.3C341.401 78.2 336.701 76.9 332.801 74.3C329.001 71.7 326.101 68.2 324.201 63.5C322.301 58.9 321.301 53.4 321.301 47.1C321.301 40.8 322.301 35.3 324.201 30.6C326.101 25.9 329.001 22.3 332.801 19.7C336.601 17.1 341.401 15.9 347.201 16C353.001 16.1 357.701 17.4 361.601 20C365.401 22.6 368.301 26.2 370.201 30.8C372.101 35.4 373.101 40.9 373.101 47.2C373.101 53.5 372.101 59 370.201 63.7Z" fill="#85C7FF"/>
<path d="M391.201 17.9004H419.801V92.5004H436.901V17.9004H465.501V1.90039H391.201V17.9004Z" fill="#85C7FF"/>
<path d="M528.401 39.2004H487.801V1.90039H470.701V92.5004H487.801V55.1004H528.401V92.5004H545.501V1.90039H528.401V39.2004Z" fill="#85C7FF"/>
<path d="M550.701 92.5004H609.901V76.6004H567.901V53.3004H602.401V37.3004H567.901V17.9004H609.901V1.90039H550.701V92.5004Z" fill="#85C7FF"/>
<path d="M678.702 51.3008C682.502 45.9008 684.402 39.4008 684.402 31.8008C684.402 26.7008 683.602 22.1008 681.902 18.0008C680.302 13.9008 677.702 10.4008 674.302 7.70079C670.802 5.00079 666.402 3.20078 661.002 2.30078C659.802 2.10078 658.502 2.00079 657.002 1.90079C655.502 1.80079 654.302 1.80078 653.402 1.80078H615.102V92.5008H632.202V61.8008H651.302L666.202 92.5008H685.602L669.202 58.9008C673.202 57.2008 676.402 54.7008 678.702 51.3008ZM632.202 17.9008H652.602C653.502 17.9008 654.402 17.9008 655.502 18.0008C656.502 18.1008 657.502 18.3008 658.402 18.5008C660.702 19.1008 662.502 20.2008 663.802 21.7008C665.102 23.2008 665.902 24.8008 666.402 26.7008C666.902 28.5008 667.102 30.3008 667.102 31.9008C667.102 33.5008 666.902 35.3008 666.402 37.1008C665.902 38.9008 665.002 40.6008 663.802 42.1008C662.502 43.6008 660.802 44.6008 658.402 45.3008C657.502 45.6008 656.602 45.7008 655.502 45.8008C654.502 45.9008 653.502 45.9008 652.602 45.9008H632.202V17.9008Z" fill="#85C7FF"/>
<path d="M756.2 54.3006C754.5 51.3006 752.3 48.9006 749.7 47.1006C747.1 45.3006 744.3 43.8006 741.5 42.8006C738.6 41.8006 736 40.9006 733.7 40.3006L718 36.0006C716.1 35.5006 714.2 34.9006 712.3 34.1006C710.4 33.3006 708.9 32.3006 707.7 31.1006C706.5 29.9006 705.9 28.3006 705.9 26.3006C705.9 24.2006 706.6 22.3006 708.1 20.8006C709.6 19.2006 711.5 18.1006 713.9 17.2006C716.3 16.4006 718.8 16.0006 721.5 16.1006C724.2 16.2006 726.8 16.8006 729.3 17.8006C731.8 18.9006 733.9 20.4006 735.8 22.4006C737.6 24.4006 738.8 26.9006 739.5 29.8006L758 26.7006C756.5 21.0006 754.1 16.2006 750.8 12.3006C747.5 8.40058 743.4 5.40058 738.5 3.30058C733.6 1.20058 728 0.200586 721.8 0.100586C715.6 0.100586 709.9 1.0006 704.8 3.0006C699.7 5.0006 695.6 8.0006 692.5 12.0006C689.4 16.0006 687.9 21.1006 687.9 27.2006C687.9 31.5006 688.6 35.1006 690.1 37.9006C691.5 40.7006 693.4 43.0006 695.5 44.7006C697.7 46.4006 699.9 47.7006 702.3 48.7006C704.7 49.7006 706.7 50.3006 708.4 50.8006L731.9 57.7006C733.7 58.2006 735.1 58.9006 736.3 59.5006C737.5 60.2006 738.3 60.9006 739 61.6006C739.7 62.3006 740.1 63.2006 740.4 64.0006C740.7 64.9006 740.8 65.8006 740.8 66.7006C740.8 69.2006 739.9 71.3006 738.3 73.1006C736.6 74.8006 734.4 76.1006 731.8 77.0006C729.2 77.9006 726.4 78.3006 723.6 78.3006C718.6 78.3006 714.1 76.9006 710.1 74.1006C706.2 71.3006 703.6 67.3006 702.3 62.1006L684.4 64.7006C685.3 70.8006 687.5 76.1006 691 80.5006C694.5 84.9006 698.9 88.3006 704.3 90.7006C709.7 93.1006 715.7 94.3006 722.5 94.3006C727.1 94.3006 731.6 93.7006 735.9 92.5006C740.2 91.3006 744.1 89.6006 747.6 87.2006C751 84.8006 753.8 81.8006 755.8 78.2006C757.8 74.6006 758.9 70.3006 758.9 65.5006C758.8 61.0006 757.9 57.2006 756.2 54.3006Z" fill="#85C7FF"/>
<path d="M219.801 51.4008C217.701 48.4008 214.901 46.2008 211.301 44.8008C213.301 43.6008 215.101 42.0008 216.501 39.9008C218.801 36.5008 219.901 32.3008 219.901 27.2008C219.901 23.2008 219.001 19.3008 217.101 15.4008C215.301 11.5008 212.301 8.30079 208.301 5.70079C204.301 3.10079 199.101 1.80078 192.601 1.80078H173.801V17.8008H192.401C195.701 17.8008 198.201 18.7008 199.901 20.6008C201.601 22.5008 202.501 24.8008 202.501 27.6008C202.501 29.8008 202.101 31.6008 201.201 33.0008C200.301 34.4008 199.101 35.4008 197.601 36.1008C196.101 36.8008 194.401 37.1008 192.401 37.1008H173.801V53.1008H194.801C197.401 53.1008 199.701 53.6008 201.401 54.6008C203.201 55.6008 204.501 56.9008 205.401 58.6008C206.301 60.3008 206.701 62.2008 206.701 64.3008C206.701 66.7008 206.201 68.8008 205.201 70.6008C204.201 72.4008 202.801 73.8008 201.001 74.8008C199.201 75.8008 197.101 76.3008 194.801 76.3008H173.801V92.4008H196.601C202.801 92.4008 207.901 91.2008 212.001 88.9008C216.101 86.6008 219.101 83.3008 221.101 79.2008C223.101 75.1008 224.101 70.3008 224.101 64.9008C224.001 60.1008 222.601 55.5008 219.801 51.4008Z" fill="#85C7FF"/>
<path d="M168.601 92.5004H151.201V17.9004L168.601 37.3004V92.5004Z" fill="#85C7FF"/>
<path d="M128.6 21.3004V37.3004H97.5L129.3 1.90039H106.2L74.5 37.3004V53.3004H114.3L128.6 37.3004V92.5004H146V1.90039L128.6 21.3004Z" fill="#212135"/>
</svg>
