<svg width="213" height="27" viewBox="0 0 213 27" fill="none" xmlns="http://www.w3.org/2000/svg">
<path d="M10.6935 26.4947C8.81302 26.4947 7.10094 26.1579 5.58532 25.4843C4.06971 24.8107 2.83476 23.8564 1.85242 22.6215C0.870075 21.3865 0.252602 19.899 0 18.1869L5.02398 17.4572C5.38885 18.9166 6.11859 20.0393 7.2132 20.8252C8.30782 21.6111 9.57083 22.004 11.0022 22.004C11.7881 22.004 12.5459 21.8917 13.3037 21.6391C14.0615 21.3865 14.6509 21.0217 15.1281 20.5445C15.6052 20.0674 15.8298 19.478 15.8298 18.7482C15.8298 18.4956 15.8017 18.243 15.7175 17.9904C15.6333 17.7378 15.521 17.5133 15.3246 17.3168C15.1561 17.0923 14.9035 16.8958 14.5667 16.7274C14.2299 16.531 13.837 16.3626 13.3318 16.2222L6.76413 14.2856C6.25893 14.1453 5.69759 13.9488 5.05205 13.6962C4.40651 13.4436 3.76097 13.0787 3.1435 12.5735C2.52602 12.0964 2.02082 11.4508 1.62788 10.665C1.23495 9.87909 1.01041 8.86868 1.01041 7.6618C1.01041 5.94972 1.43141 4.54638 2.30149 3.39563C3.17156 2.27296 4.32231 1.43094 5.75372 0.869604C7.18514 0.308265 8.78495 0.0556641 10.5251 0.0556641C12.2933 0.083731 13.837 0.392467 15.2123 0.953805C16.5876 1.54321 17.7383 2.35715 18.6645 3.47983C19.5907 4.57444 20.2643 5.92165 20.6853 7.52147L15.493 8.39155C15.2965 7.5776 14.9597 6.87593 14.4545 6.31459C13.9493 5.75325 13.3318 5.33225 12.6301 5.02351C11.9284 4.74284 11.1987 4.57444 10.4409 4.54637C9.6831 4.5183 8.98142 4.63057 8.30781 4.85511C7.63421 5.07964 7.10094 5.41645 6.67993 5.86552C6.25893 6.31459 6.06246 6.8198 6.06246 7.4092C6.06246 7.97054 6.23086 8.41961 6.56766 8.75641C6.90447 9.09322 7.32547 9.37388 7.85874 9.59842C8.39202 9.82296 8.89722 9.99136 9.45856 10.1317L13.8651 11.3386C14.5387 11.507 15.2684 11.7596 16.0543 12.0402C16.8682 12.3209 17.626 12.7419 18.3558 13.2471C19.0855 13.7523 19.703 14.4259 20.1801 15.2679C20.6573 16.11 20.9099 17.1765 20.9099 18.4395C20.9099 19.8148 20.6292 20.9936 20.0398 22.004C19.4785 23.0144 18.6926 23.8564 17.7383 24.53C16.784 25.2036 15.6894 25.6808 14.4545 26.0176C13.2476 26.3263 11.9846 26.4947 10.6935 26.4947Z" fill="white"/>
<path d="M82.1807 14.3985C83.2472 12.8829 83.7805 11.0585 83.7805 8.92545C83.7805 7.49404 83.5559 6.20296 83.0788 5.05222C82.6297 3.90147 81.9 2.91913 80.9457 2.16132C79.9634 1.40352 78.7284 0.898308 77.2128 0.645706C76.876 0.589572 76.5111 0.561507 76.0901 0.53344C75.6691 0.505373 75.3323 0.505371 75.0797 0.505371H64.3301V25.9621H69.1295V17.3455H74.4903L78.6723 25.9621H84.1453L79.5424 16.5316C80.665 16.0545 81.5351 15.3528 82.1807 14.3985ZM69.1576 5.02415H74.8833C75.1359 5.02415 75.3885 5.02415 75.6972 5.05222C75.9779 5.08029 76.2585 5.13642 76.5111 5.19255C77.1567 5.36095 77.6619 5.66969 78.0268 6.09069C78.3916 6.51169 78.6161 6.96077 78.7565 7.49404C78.8968 7.99924 78.953 8.50445 78.953 8.95352C78.953 9.40259 78.8968 9.9078 78.7565 10.413C78.6161 10.9182 78.3636 11.3953 78.0268 11.8164C77.6619 12.2374 77.1847 12.518 76.5111 12.7145C76.2585 12.7987 76.0059 12.8268 75.6972 12.8548C75.4165 12.8829 75.1359 12.8829 74.8833 12.8829H69.1576V5.02415Z" fill="#85C7FF"/>
<path d="M104.047 1.65595C102.194 0.561337 100.005 0 97.451 0C94.8969 0 92.7077 0.561337 90.8553 1.65595C89.0029 2.75056 87.5995 4.32231 86.5891 6.31506C85.6068 8.30781 85.1016 10.6093 85.1016 13.2476C85.1016 15.8859 85.6068 18.1874 86.5891 20.1801C87.5715 22.1729 89.0029 23.7166 90.8553 24.8392C92.7077 25.9339 94.8969 26.4952 97.451 26.4952C100.005 26.4952 102.194 25.9339 104.047 24.8392C105.899 23.7446 107.303 22.1729 108.313 20.1801C109.323 18.1874 109.8 15.8859 109.8 13.2476C109.8 10.6093 109.295 8.30781 108.313 6.31506C107.331 4.32231 105.899 2.77863 104.047 1.65595ZM103.906 17.8786C103.373 19.1978 102.559 20.2082 101.493 20.9379C100.426 21.6677 99.0789 22.0045 97.451 21.9764C95.8231 21.9483 94.504 21.5835 93.4094 20.8537C92.3428 20.124 91.5289 19.1417 90.9956 17.8225C90.4623 16.5314 90.1817 14.9877 90.1817 13.2195C90.1817 11.4513 90.4623 9.90763 90.9956 8.58849C91.5289 7.26934 92.3428 6.25892 93.4094 5.52918C94.4759 4.79944 95.8231 4.46264 97.451 4.49071C99.0789 4.51878 100.398 4.88365 101.493 5.61339C102.559 6.34313 103.373 7.35354 103.906 8.64461C104.44 9.93569 104.72 11.4794 104.72 13.2476C104.72 15.0158 104.44 16.5595 103.906 17.8786Z" fill="#85C7FF"/>
<path d="M109.801 5.02343H117.828V25.9614H122.627V5.02343H130.655V0.532715H109.801V5.02343Z" fill="#85C7FF"/>
<path d="M148.306 11.0017H136.911V0.532715H132.111V25.9614H136.911V15.4643H148.306V25.9614H153.105V0.532715H148.306V11.0017Z" fill="#85C7FF"/>
<path d="M154.564 25.9614H171.18V21.4987H159.392V14.9591H169.075V10.4684H159.392V5.02343H171.18V0.532715H154.564V25.9614Z" fill="#85C7FF"/>
<path d="M190.489 14.3985C191.556 12.8829 192.089 11.0585 192.089 8.92545C192.089 7.49404 191.865 6.20296 191.387 5.05222C190.938 3.90147 190.209 2.91913 189.254 2.16132C188.272 1.40352 187.037 0.898308 185.521 0.645706C185.185 0.589572 184.82 0.561507 184.399 0.53344C183.978 0.505373 183.641 0.505371 183.388 0.505371H172.639V25.9621H177.438V17.3455H182.799L186.981 25.9621H192.426L187.823 16.5316C188.946 16.0545 189.844 15.3528 190.489 14.3985ZM177.438 5.02415H183.164C183.416 5.02415 183.669 5.02415 183.978 5.05222C184.258 5.08029 184.539 5.13642 184.792 5.19255C185.437 5.36095 185.942 5.66969 186.307 6.09069C186.672 6.51169 186.897 6.96077 187.037 7.49404C187.177 7.99924 187.233 8.50445 187.233 8.95352C187.233 9.40259 187.177 9.9078 187.037 10.413C186.897 10.9182 186.644 11.3953 186.307 11.8164C185.942 12.2374 185.465 12.518 184.792 12.7145C184.539 12.7987 184.286 12.8268 183.978 12.8548C183.697 12.8829 183.416 12.8829 183.164 12.8829H177.438V5.02415Z" fill="#85C7FF"/>
<path d="M212.242 15.2401C211.765 14.3981 211.147 13.7245 210.418 13.2193C209.688 12.7141 208.902 12.2931 208.116 12.0124C207.302 11.7317 206.572 11.4791 205.927 11.3107L201.52 10.1039C200.987 9.96353 200.454 9.79513 199.921 9.5706C199.387 9.34606 198.966 9.06539 198.629 8.72859C198.293 8.39179 198.124 7.94271 198.124 7.38137C198.124 6.79196 198.321 6.25869 198.742 5.83769C199.163 5.38862 199.696 5.07988 200.37 4.82728C201.043 4.60274 201.745 4.49048 202.503 4.51855C203.26 4.54661 203.99 4.71501 204.692 4.99568C205.394 5.30442 205.983 5.72542 206.516 6.28676C207.021 6.8481 207.358 7.54977 207.555 8.36371L212.747 7.49364C212.326 5.89382 211.653 4.54661 210.726 3.452C209.8 2.35739 208.649 1.51538 207.274 0.925973C205.899 0.336568 204.327 0.055899 202.587 0.027832C200.847 0.027832 199.247 0.280437 197.816 0.841776C196.384 1.40311 195.233 2.24512 194.363 3.3678C193.493 4.49048 193.072 5.92189 193.072 7.63397C193.072 8.84085 193.269 9.85126 193.69 10.6371C194.083 11.423 194.616 12.0685 195.205 12.5457C195.823 13.0228 196.44 13.3877 197.114 13.6684C197.787 13.949 198.349 14.1174 198.826 14.2578L205.422 16.1944C205.927 16.3347 206.32 16.5312 206.657 16.6996C206.993 16.8961 207.218 17.0925 207.414 17.289C207.611 17.4855 207.723 17.7381 207.807 17.9626C207.892 18.2152 207.92 18.4678 207.92 18.7204C207.92 19.4221 207.667 20.0115 207.218 20.5167C206.741 20.9938 206.123 21.3587 205.394 21.6113C204.664 21.8639 203.878 21.9762 203.092 21.9762C201.689 21.9762 200.426 21.5832 199.303 20.7974C198.208 20.0115 197.479 18.8888 197.114 17.4293L192.09 18.1591C192.342 19.8712 192.96 21.3587 193.942 22.5937C194.925 23.8286 196.16 24.7829 197.675 25.4565C199.191 26.1301 200.875 26.4669 202.783 26.4669C204.074 26.4669 205.337 26.2985 206.544 25.9617C207.751 25.6249 208.846 25.1477 209.828 24.4741C210.782 23.8005 211.568 22.9585 212.13 21.9481C212.691 20.9377 213 19.7308 213 18.3836C212.972 17.1206 212.719 16.0541 212.242 15.2401Z" fill="#85C7FF"/>
<path d="M61.694 14.4266C61.1046 13.5846 60.3187 12.9671 59.3083 12.5742C59.8696 12.2374 60.3748 11.7883 60.7678 11.1989C61.4133 10.2446 61.7221 9.06579 61.7221 7.63437C61.7221 6.51169 61.4695 5.41709 60.9362 4.32248C60.431 3.22787 59.589 2.32972 58.4663 1.59998C57.3436 0.870244 55.8841 0.505371 54.0598 0.505371H48.7832V4.99608H54.0037C54.9299 4.99608 55.6315 5.24869 56.1087 5.78196C56.5858 6.31523 56.8384 6.96077 56.8384 7.74665C56.8384 8.36412 56.7261 8.86932 56.4735 9.26226C56.2209 9.6552 55.8841 9.93587 55.4631 10.1323C55.0421 10.3288 54.565 10.413 54.0037 10.413H48.7832V14.9037H54.6773C55.407 14.9037 56.0525 15.0441 56.5297 15.3247C57.0349 15.6054 57.3998 15.9703 57.6524 16.4474C57.905 16.9245 58.0172 17.4578 58.0172 18.0472C58.0172 18.7208 57.8769 19.3102 57.5962 19.8154C57.3156 20.3206 56.9226 20.7136 56.4174 20.9942C55.9122 21.2749 55.3228 21.4152 54.6773 21.4152H48.7832V25.934H55.1825C56.9226 25.934 58.354 25.5972 59.5048 24.9517C60.6555 24.3061 61.4975 23.3799 62.0589 22.2292C62.6202 21.0784 62.9009 19.7312 62.9009 18.2156C62.8728 16.8684 62.4799 15.5773 61.694 14.4266Z" fill="#85C7FF"/>
<path d="M47.3212 25.9614H42.4375V5.02344L47.3212 10.4684V25.9614Z" fill="#85C7FF"/>
<path d="M36.0944 5.9777V10.4684H27.3656L36.2908 0.532715H29.8074L20.9102 10.4684V14.9591H32.0808L36.0944 10.4684V25.9614H40.978V0.532715L36.0944 5.9777Z" fill="white"/>
</svg>
